solid Default
  facet normal -1.000000e+00 -0.000000e+00 -0.000000e+00
    outer loop
      vertex -1.410970e+01 -2.289620e+01 0.000000e+00
      vertex -1.410970e+01 -2.289620e+01 1.795780e+01
      vertex -1.410970e+01 2.289620e+01 0.000000e+00
    endloop
  endfacet
  facet normal -1.000000e+00 0.000000e+00 0.000000e+00
    outer loop
      vertex -1.410970e+01 2.289620e+01 0.000000e+00
      vertex -1.410970e+01 -2.289620e+01 1.795780e+01
      vertex -1.410970e+01 2.289620e+01 1.795780e+01
    endloop
  endfacet
  facet normal 0.000000e+00 -1.000000e+00 0.000000e+00
    outer loop
      vertex -1.410970e+01 -2.289620e+01 1.795780e+01
      vertex -1.410970e+01 -2.289620e+01 0.000000e+00
      vertex 1.410970e+01 -2.289620e+01 0.000000e+00
    endloop
  endfacet
  facet normal 0.000000e+00 -1.000000e+00 0.000000e+00
    outer loop
      vertex 1.410970e+01 -2.289620e+01 1.795780e+01
      vertex -1.410970e+01 -2.289620e+01 1.795780e+01
      vertex 1.410970e+01 -2.289620e+01 0.000000e+00
    endloop
  endfacet
  facet normal -0.000000e+00 -0.000000e+00 -1.000000e+00
    outer loop
      vertex -1.410970e+01 -2.289620e+01 0.000000e+00
      vertex -1.410970e+01 2.289620e+01 0.000000e+00
      vertex 1.410970e+01 -2.289620e+01 0.000000e+00
    endloop
  endfacet
  facet normal 0.000000e+00 0.000000e+00 -1.000000e+00
    outer loop
      vertex 1.410970e+01 -2.289620e+01 0.000000e+00
      vertex -1.410970e+01 2.289620e+01 0.000000e+00
      vertex 1.410970e+01 2.289620e+01 0.000000e+00
    endloop
  endfacet
  facet normal 0.000000e+00 1.000000e+00 0.000000e+00
    outer loop
      vertex -1.410970e+01 2.289620e+01 0.000000e+00
      vertex -1.410970e+01 2.289620e+01 1.795780e+01
      vertex 1.410970e+01 2.289620e+01 0.000000e+00
    endloop
  endfacet
  facet normal 0.000000e+00 1.000000e+00 0.000000e+00
    outer loop
      vertex 1.410970e+01 2.289620e+01 0.000000e+00
      vertex -1.410970e+01 2.289620e+01 1.795780e+01
      vertex 1.410970e+01 2.289620e+01 1.795780e+01
    endloop
  endfacet
  facet normal 0.000000e+00 0.000000e+00 1.000000e+00
    outer loop
      vertex -1.090295e+01 -1.968944e+01 1.795780e+01
      vertex -1.410970e+01 -2.289620e+01 1.795780e+01
      vertex 1.410970e+01 -2.289620e+01 1.795780e+01
    endloop
  endfacet
  facet normal 0.000000e+00 0.000000e+00 1.000000e+00
    outer loop
      vertex -1.410970e+01 2.289620e+01 1.795780e+01
      vertex -1.410970e+01 -2.289620e+01 1.795780e+01
      vertex -1.090295e+01 -1.968944e+01 1.795780e+01
    endloop
  endfacet
  facet normal 0.000000e+00 0.000000e+00 1.000000e+00
    outer loop
      vertex -2.765582e+00 2.136654e+00 1.795780e+01
      vertex -2.765582e+00 5.758515e+00 1.795780e+01
      vertex -1.410970e+01 2.289620e+01 1.795780e+01
    endloop
  endfacet
  facet normal 0.000000e+00 0.000000e+00 1.000000e+00
    outer loop
      vertex -1.410970e+01 2.289620e+01 1.795780e+01
      vertex -1.090295e+01 -1.968944e+01 1.795780e+01
      vertex -1.090295e+01 2.136654e+00 1.795780e+01
    endloop
  endfacet
  facet normal 0.000000e+00 0.000000e+00 1.000000e+00
    outer loop
      vertex -1.410970e+01 2.289620e+01 1.795780e+01
      vertex -1.090295e+01 2.136654e+00 1.795780e+01
      vertex -2.765582e+00 2.136654e+00 1.795780e+01
    endloop
  endfacet
  facet normal 0.000000e+00 0.000000e+00 1.000000e+00
    outer loop
      vertex -1.790731e+00 2.008435e+01 1.795780e+01
      vertex -1.410970e+01 2.289620e+01 1.795780e+01
      vertex -2.765582e+00 5.758515e+00 1.795780e+01
    endloop
  endfacet
  facet normal 0.000000e+00 0.000000e+00 1.000000e+00
    outer loop
      vertex 1.410970e+01 2.289620e+01 1.795780e+01
      vertex -1.410970e+01 2.289620e+01 1.795780e+01
      vertex -1.790731e+00 2.008435e+01 1.795780e+01
    endloop
  endfacet
  facet normal 0.000000e+00 0.000000e+00 1.000000e+00
    outer loop
      vertex 1.800830e+00 2.008435e+01 1.795780e+01
      vertex 1.800830e+00 5.758515e+00 1.795780e+01
      vertex 1.410970e+01 2.289620e+01 1.795780e+01
    endloop
  endfacet
  facet normal 0.000000e+00 0.000000e+00 1.000000e+00
    outer loop
      vertex 1.410970e+01 2.289620e+01 1.795780e+01
      vertex -1.790731e+00 2.008435e+01 1.795780e+01
      vertex 1.800830e+00 2.008435e+01 1.795780e+01
    endloop
  endfacet
  facet normal 0.000000e+00 0.000000e+00 1.000000e+00
    outer loop
      vertex 2.775682e+00 2.136654e+00 1.795780e+01
      vertex 1.091305e+01 2.136654e+00 1.795780e+01
      vertex 2.775682e+00 5.758515e+00 1.795780e+01
    endloop
  endfacet
  facet normal 0.000000e+00 0.000000e+00 1.000000e+00
    outer loop
      vertex 1.410970e+01 2.289620e+01 1.795780e+01
      vertex 1.800830e+00 5.758515e+00 1.795780e+01
      vertex 2.775682e+00 5.758515e+00 1.795780e+01
    endloop
  endfacet
  facet normal 0.000000e+00 0.000000e+00 1.000000e+00
    outer loop
      vertex 1.410970e+01 2.289620e+01 1.795780e+01
      vertex 1.091305e+01 2.136654e+00 1.795780e+01
      vertex 1.410970e+01 -2.289620e+01 1.795780e+01
    endloop
  endfacet
  facet normal 0.000000e+00 0.000000e+00 1.000000e+00
    outer loop
      vertex 1.410970e+01 2.289620e+01 1.795780e+01
      vertex 2.775682e+00 5.758515e+00 1.795780e+01
      vertex 1.091305e+01 2.136654e+00 1.795780e+01
    endloop
  endfacet
  facet normal 0.000000e+00 0.000000e+00 1.000000e+00
    outer loop
      vertex 1.091305e+01 -1.968944e+01 1.795780e+01
      vertex -1.090295e+01 -1.968944e+01 1.795780e+01
      vertex 1.410970e+01 -2.289620e+01 1.795780e+01
    endloop
  endfacet
  facet normal 0.000000e+00 0.000000e+00 1.000000e+00
    outer loop
      vertex -1.790731e+00 5.758515e+00 1.795780e+01
      vertex -1.790731e+00 2.008435e+01 1.795780e+01
      vertex -2.765582e+00 5.758515e+00 1.795780e+01
    endloop
  endfacet
  facet normal 0.000000e+00 0.000000e+00 1.000000e+00
    outer loop
      vertex 1.091305e+01 2.136654e+00 1.795780e+01
      vertex 1.091305e+01 -1.968944e+01 1.795780e+01
      vertex 1.410970e+01 -2.289620e+01 1.795780e+01
    endloop
  endfacet
  facet normal 1.000000e+00 0.000000e+00 0.000000e+00
    outer loop
      vertex 1.410970e+01 -2.289620e+01 1.795780e+01
      vertex 1.410970e+01 -2.289620e+01 0.000000e+00
      vertex 1.410970e+01 2.289620e+01 0.000000e+00
    endloop
  endfacet
  facet normal 1.000000e+00 0.000000e+00 0.000000e+00
    outer loop
      vertex 1.410970e+01 2.289620e+01 1.795780e+01
      vertex 1.410970e+01 -2.289620e+01 1.795780e+01
      vertex 1.410970e+01 2.289620e+01 0.000000e+00
    endloop
  endfacet
  facet normal 1.000000e+00 0.000000e+00 0.000000e+00
    outer loop
      vertex -1.090295e+01 -1.967935e+01 1.167257e+01
      vertex -1.090295e+01 -1.967935e+01 3.206750e+00
      vertex -1.090295e+01 2.136654e+00 3.206750e+00
    endloop
  endfacet
  facet normal 1.000000e+00 0.000000e+00 0.000000e+00
    outer loop
      vertex -1.090295e+01 -1.968944e+01 1.795780e+01
      vertex -1.090295e+01 -1.967935e+01 1.167257e+01
      vertex -1.090295e+01 2.136654e+00 1.795780e+01
    endloop
  endfacet
  facet normal 1.000000e+00 0.000000e+00 0.000000e+00
    outer loop
      vertex -1.090295e+01 2.136654e+00 1.795780e+01
      vertex -1.090295e+01 -1.967935e+01 1.167257e+01
      vertex -1.090295e+01 2.136654e+00 3.206750e+00
    endloop
  endfacet
  facet normal 1.000000e+00 0.000000e+00 0.000000e+00
    outer loop
      vertex -1.090295e+01 -1.968944e+01 1.167257e+01
      vertex -1.090295e+01 -1.967935e+01 1.167257e+01
      vertex -1.090295e+01 -1.968944e+01 1.795780e+01
    endloop
  endfacet
  facet normal 0.000000e+00 1.000000e+00 0.000000e+00
    outer loop
      vertex 1.091305e+01 -1.968944e+01 1.795780e+01
      vertex 1.091305e+01 -1.968944e+01 1.167257e+01
      vertex -1.090295e+01 -1.968944e+01 1.795780e+01
    endloop
  endfacet
  facet normal 0.000000e+00 1.000000e+00 0.000000e+00
    outer loop
      vertex -1.090295e+01 -1.968944e+01 1.795780e+01
      vertex 1.091305e+01 -1.968944e+01 1.167257e+01
      vertex -1.090295e+01 -1.968944e+01 1.167257e+01
    endloop
  endfacet
  facet normal -1.000000e+00 0.000000e+00 0.000000e+00
    outer loop
      vertex 1.091305e+01 2.136654e+00 1.795780e+01
      vertex 1.091305e+01 2.136654e+00 3.206750e+00
      vertex 1.091305e+01 -1.968944e+01 1.795780e+01
    endloop
  endfacet
  facet normal -1.000000e+00 0.000000e+00 0.000000e+00
    outer loop
      vertex 1.091305e+01 -1.967935e+01 1.167257e+01
      vertex 1.091305e+01 2.136654e+00 3.206750e+00
      vertex 1.091305e+01 -1.967935e+01 3.206750e+00
    endloop
  endfacet
  facet normal -1.000000e+00 0.000000e+00 0.000000e+00
    outer loop
      vertex 1.091305e+01 -1.968944e+01 1.795780e+01
      vertex 1.091305e+01 2.136654e+00 3.206750e+00
      vertex 1.091305e+01 -1.967935e+01 1.167257e+01
    endloop
  endfacet
  facet normal -1.000000e+00 -0.000000e+00 -0.000000e+00
    outer loop
      vertex 1.091305e+01 -1.968944e+01 1.167257e+01
      vertex 1.091305e+01 -1.968944e+01 1.795780e+01
      vertex 1.091305e+01 -1.967935e+01 1.167257e+01
    endloop
  endfacet
  facet normal 0.000000e+00 -1.000000e+00 0.000000e+00
    outer loop
      vertex 1.091305e+01 2.136654e+00 3.206750e+00
      vertex 1.091305e+01 2.136654e+00 1.795780e+01
      vertex 2.775682e+00 2.136654e+00 1.795780e+01
    endloop
  endfacet
  facet normal -0.000000e+00 -1.000000e+00 -0.000000e+00
    outer loop
      vertex 2.775682e+00 2.136654e+00 1.167257e+01
      vertex 1.091305e+01 2.136654e+00 3.206750e+00
      vertex 2.775682e+00 2.136654e+00 1.795780e+01
    endloop
  endfacet
  facet normal 0.000000e+00 -1.000000e+00 0.000000e+00
    outer loop
      vertex 2.765139e+00 2.136654e+00 1.143109e+01
      vertex 1.091305e+01 2.136654e+00 3.206750e+00
      vertex 2.775682e+00 2.136654e+00 1.167257e+01
    endloop
  endfacet
  facet normal 0.000000e+00 -1.000000e+00 0.000000e+00
    outer loop
      vertex 2.733590e+00 2.136654e+00 1.119146e+01
      vertex 1.091305e+01 2.136654e+00 3.206750e+00
      vertex 2.765139e+00 2.136654e+00 1.143109e+01
    endloop
  endfacet
  facet normal 0.000000e+00 -1.000000e+00 0.000000e+00
    outer loop
      vertex 2.681274e+00 2.136654e+00 1.095548e+01
      vertex 1.091305e+01 2.136654e+00 3.206750e+00
      vertex 2.733590e+00 2.136654e+00 1.119146e+01
    endloop
  endfacet
  facet normal 0.000000e+00 -1.000000e+00 0.000000e+00
    outer loop
      vertex 2.608593e+00 2.136654e+00 1.072496e+01
      vertex 1.091305e+01 2.136654e+00 3.206750e+00
      vertex 2.681274e+00 2.136654e+00 1.095548e+01
    endloop
  endfacet
  facet normal 0.000000e+00 -1.000000e+00 0.000000e+00
    outer loop
      vertex 2.516095e+00 2.136654e+00 1.050165e+01
      vertex 1.091305e+01 2.136654e+00 3.206750e+00
      vertex 2.608593e+00 2.136654e+00 1.072496e+01
    endloop
  endfacet
  facet normal 0.000000e+00 -1.000000e+00 0.000000e+00
    outer loop
      vertex 2.404488e+00 2.136654e+00 1.028725e+01
      vertex 1.091305e+01 2.136654e+00 3.206750e+00
      vertex 2.516095e+00 2.136654e+00 1.050165e+01
    endloop
  endfacet
  facet normal 0.000000e+00 -1.000000e+00 0.000000e+00
    outer loop
      vertex 2.274618e+00 2.136654e+00 1.008340e+01
      vertex 1.091305e+01 2.136654e+00 3.206750e+00
      vertex 2.404488e+00 2.136654e+00 1.028725e+01
    endloop
  endfacet
  facet normal 0.000000e+00 -1.000000e+00 0.000000e+00
    outer loop
      vertex 2.127476e+00 2.136654e+00 9.891642e+00
      vertex 1.091305e+01 2.136654e+00 3.206750e+00
      vertex 2.274618e+00 2.136654e+00 1.008340e+01
    endloop
  endfacet
  facet normal 0.000000e+00 -1.000000e+00 0.000000e+00
    outer loop
      vertex 1.964182e+00 2.136654e+00 9.713437e+00
      vertex 1.091305e+01 2.136654e+00 3.206750e+00
      vertex 2.127476e+00 2.136654e+00 9.891642e+00
    endloop
  endfacet
  facet normal 0.000000e+00 -1.000000e+00 0.000000e+00
    outer loop
      vertex 1.785977e+00 2.136654e+00 9.550143e+00
      vertex 1.091305e+01 2.136654e+00 3.206750e+00
      vertex 1.964182e+00 2.136654e+00 9.713437e+00
    endloop
  endfacet
  facet normal 0.000000e+00 -1.000000e+00 0.000000e+00
    outer loop
      vertex 1.594219e+00 2.136654e+00 9.403001e+00
      vertex 1.091305e+01 2.136654e+00 3.206750e+00
      vertex 1.785977e+00 2.136654e+00 9.550143e+00
    endloop
  endfacet
  facet normal 0.000000e+00 -1.000000e+00 0.000000e+00
    outer loop
      vertex 1.390365e+00 2.136654e+00 9.273132e+00
      vertex 1.091305e+01 2.136654e+00 3.206750e+00
      vertex 1.594219e+00 2.136654e+00 9.403001e+00
    endloop
  endfacet
  facet normal 0.000000e+00 -1.000000e+00 0.000000e+00
    outer loop
      vertex 1.175969e+00 2.136654e+00 9.161524e+00
      vertex 1.091305e+01 2.136654e+00 3.206750e+00
      vertex 1.390365e+00 2.136654e+00 9.273132e+00
    endloop
  endfacet
  facet normal 0.000000e+00 -1.000000e+00 0.000000e+00
    outer loop
      vertex 9.526620e-01 2.136654e+00 9.069027e+00
      vertex 1.091305e+01 2.136654e+00 3.206750e+00
      vertex 1.175969e+00 2.136654e+00 9.161524e+00
    endloop
  endfacet
  facet normal 0.000000e+00 -1.000000e+00 0.000000e+00
    outer loop
      vertex 7.221415e-01 2.136654e+00 8.996345e+00
      vertex 1.091305e+01 2.136654e+00 3.206750e+00
      vertex 9.526620e-01 2.136654e+00 9.069027e+00
    endloop
  endfacet
  facet normal 0.000000e+00 -1.000000e+00 0.000000e+00
    outer loop
      vertex 4.861654e-01 2.136654e+00 8.944030e+00
      vertex 1.091305e+01 2.136654e+00 3.206750e+00
      vertex 7.221415e-01 2.136654e+00 8.996345e+00
    endloop
  endfacet
  facet normal 0.000000e+00 -1.000000e+00 0.000000e+00
    outer loop
      vertex 2.465261e-01 2.136654e+00 8.912481e+00
      vertex 1.091305e+01 2.136654e+00 3.206750e+00
      vertex 4.861654e-01 2.136654e+00 8.944030e+00
    endloop
  endfacet
  facet normal 0.000000e+00 -1.000000e+00 0.000000e+00
    outer loop
      vertex 5.050115e-03 2.136654e+00 8.901938e+00
      vertex 1.091305e+01 2.136654e+00 3.206750e+00
      vertex 2.465261e-01 2.136654e+00 8.912481e+00
    endloop
  endfacet
  facet normal 0.000000e+00 -1.000000e+00 0.000000e+00
    outer loop
      vertex -2.364269e-01 2.136654e+00 8.912481e+00
      vertex 1.091305e+01 2.136654e+00 3.206750e+00
      vertex 5.050115e-03 2.136654e+00 8.901938e+00
    endloop
  endfacet
  facet normal 0.000000e+00 -1.000000e+00 0.000000e+00
    outer loop
      vertex -4.760661e-01 2.136654e+00 8.944030e+00
      vertex 1.091305e+01 2.136654e+00 3.206750e+00
      vertex -2.364269e-01 2.136654e+00 8.912481e+00
    endloop
  endfacet
  facet normal 0.000000e+00 -1.000000e+00 0.000000e+00
    outer loop
      vertex -7.120422e-01 2.136654e+00 8.996345e+00
      vertex 1.091305e+01 2.136654e+00 3.206750e+00
      vertex -4.760661e-01 2.136654e+00 8.944030e+00
    endloop
  endfacet
  facet normal 0.000000e+00 -1.000000e+00 0.000000e+00
    outer loop
      vertex -9.425627e-01 2.136654e+00 9.069027e+00
      vertex 1.091305e+01 2.136654e+00 3.206750e+00
      vertex -7.120422e-01 2.136654e+00 8.996345e+00
    endloop
  endfacet
  facet normal 0.000000e+00 -1.000000e+00 0.000000e+00
    outer loop
      vertex -1.165869e+00 2.136654e+00 9.161524e+00
      vertex 1.091305e+01 2.136654e+00 3.206750e+00
      vertex -9.425627e-01 2.136654e+00 9.069027e+00
    endloop
  endfacet
  facet normal 0.000000e+00 -1.000000e+00 0.000000e+00
    outer loop
      vertex -1.090295e+01 2.136654e+00 3.206750e+00
      vertex 1.091305e+01 2.136654e+00 3.206750e+00
      vertex -1.165869e+00 2.136654e+00 9.161524e+00
    endloop
  endfacet
  facet normal 0.000000e+00 -1.000000e+00 0.000000e+00
    outer loop
      vertex -1.090295e+01 2.136654e+00 3.206750e+00
      vertex -1.165869e+00 2.136654e+00 9.161524e+00
      vertex -1.380266e+00 2.136654e+00 9.273132e+00
    endloop
  endfacet
  facet normal 0.000000e+00 -1.000000e+00 0.000000e+00
    outer loop
      vertex -1.090295e+01 2.136654e+00 3.206750e+00
      vertex -1.380266e+00 2.136654e+00 9.273132e+00
      vertex -1.584120e+00 2.136654e+00 9.403001e+00
    endloop
  endfacet
  facet normal 0.000000e+00 -1.000000e+00 0.000000e+00
    outer loop
      vertex -1.090295e+01 2.136654e+00 3.206750e+00
      vertex -1.584120e+00 2.136654e+00 9.403001e+00
      vertex -1.775878e+00 2.136654e+00 9.550143e+00
    endloop
  endfacet
  facet normal 0.000000e+00 -1.000000e+00 0.000000e+00
    outer loop
      vertex -1.090295e+01 2.136654e+00 3.206750e+00
      vertex -1.775878e+00 2.136654e+00 9.550143e+00
      vertex -1.954082e+00 2.136654e+00 9.713437e+00
    endloop
  endfacet
  facet normal 0.000000e+00 -1.000000e+00 0.000000e+00
    outer loop
      vertex -1.090295e+01 2.136654e+00 1.795780e+01
      vertex -1.954082e+00 2.136654e+00 9.713437e+00
      vertex -2.117378e+00 2.136654e+00 9.891642e+00
    endloop
  endfacet
  facet normal 0.000000e+00 -1.000000e+00 0.000000e+00
    outer loop
      vertex -1.090295e+01 2.136654e+00 1.795780e+01
      vertex -2.117378e+00 2.136654e+00 9.891642e+00
      vertex -2.264519e+00 2.136654e+00 1.008340e+01
    endloop
  endfacet
  facet normal 0.000000e+00 -1.000000e+00 0.000000e+00
    outer loop
      vertex -1.090295e+01 2.136654e+00 1.795780e+01
      vertex -2.264519e+00 2.136654e+00 1.008340e+01
      vertex -2.394388e+00 2.136654e+00 1.028725e+01
    endloop
  endfacet
  facet normal 0.000000e+00 -1.000000e+00 0.000000e+00
    outer loop
      vertex -1.090295e+01 2.136654e+00 1.795780e+01
      vertex -2.394388e+00 2.136654e+00 1.028725e+01
      vertex -2.505996e+00 2.136654e+00 1.050165e+01
    endloop
  endfacet
  facet normal 0.000000e+00 -1.000000e+00 0.000000e+00
    outer loop
      vertex -1.090295e+01 2.136654e+00 1.795780e+01
      vertex -2.505996e+00 2.136654e+00 1.050165e+01
      vertex -2.598493e+00 2.136654e+00 1.072496e+01
    endloop
  endfacet
  facet normal 0.000000e+00 -1.000000e+00 0.000000e+00
    outer loop
      vertex -1.090295e+01 2.136654e+00 1.795780e+01
      vertex -2.598493e+00 2.136654e+00 1.072496e+01
      vertex -2.671176e+00 2.136654e+00 1.095548e+01
    endloop
  endfacet
  facet normal 0.000000e+00 -1.000000e+00 0.000000e+00
    outer loop
      vertex -1.090295e+01 2.136654e+00 1.795780e+01
      vertex -2.671176e+00 2.136654e+00 1.095548e+01
      vertex -2.723491e+00 2.136654e+00 1.119146e+01
    endloop
  endfacet
  facet normal 0.000000e+00 -1.000000e+00 0.000000e+00
    outer loop
      vertex -1.090295e+01 2.136654e+00 1.795780e+01
      vertex -2.723491e+00 2.136654e+00 1.119146e+01
      vertex -2.755039e+00 2.136654e+00 1.143109e+01
    endloop
  endfacet
  facet normal 0.000000e+00 -1.000000e+00 0.000000e+00
    outer loop
      vertex -1.090295e+01 2.136654e+00 1.795780e+01
      vertex -2.755039e+00 2.136654e+00 1.143109e+01
      vertex -2.765582e+00 2.136654e+00 1.167257e+01
    endloop
  endfacet
  facet normal 0.000000e+00 -1.000000e+00 0.000000e+00
    outer loop
      vertex -1.090295e+01 2.136654e+00 1.795780e+01
      vertex -2.765582e+00 2.136654e+00 1.167257e+01
      vertex -2.765582e+00 2.136654e+00 1.795780e+01
    endloop
  endfacet
  facet normal 0.000000e+00 -1.000000e+00 0.000000e+00
    outer loop
      vertex -1.090295e+01 2.136654e+00 3.206750e+00
      vertex -1.954082e+00 2.136654e+00 9.713437e+00
      vertex -1.090295e+01 2.136654e+00 1.795780e+01
    endloop
  endfacet
  facet normal -1.000000e+00 0.000000e+00 0.000000e+00
    outer loop
      vertex 2.775682e+00 5.758515e+00 1.795780e+01
      vertex 2.775682e+00 5.758515e+00 1.167257e+01
      vertex 2.775682e+00 2.136654e+00 1.795780e+01
    endloop
  endfacet
  facet normal -1.000000e+00 0.000000e+00 0.000000e+00
    outer loop
      vertex 2.775682e+00 2.136654e+00 1.795780e+01
      vertex 2.775682e+00 5.758515e+00 1.167257e+01
      vertex 2.775682e+00 2.136654e+00 1.167257e+01
    endloop
  endfacet
  facet normal 0.000000e+00 -1.000000e+00 0.000000e+00
    outer loop
      vertex 2.775682e+00 5.758515e+00 1.167257e+01
      vertex 2.775682e+00 5.758515e+00 1.795780e+01
      vertex 1.800830e+00 5.758515e+00 1.795780e+01
    endloop
  endfacet
  facet normal -0.000000e+00 -1.000000e+00 -0.000000e+00
    outer loop
      vertex 1.800830e+00 5.758515e+00 1.167257e+01
      vertex 2.775682e+00 5.758515e+00 1.167257e+01
      vertex 1.800830e+00 5.758515e+00 1.795780e+01
    endloop
  endfacet
  facet normal -1.000000e+00 0.000000e+00 0.000000e+00
    outer loop
      vertex 1.800830e+00 2.008435e+01 1.795780e+01
      vertex 1.800830e+00 2.008435e+01 1.167257e+01
      vertex 1.800830e+00 5.758515e+00 1.795780e+01
    endloop
  endfacet
  facet normal -1.000000e+00 0.000000e+00 0.000000e+00
    outer loop
      vertex 1.800830e+00 5.758515e+00 1.795780e+01
      vertex 1.800830e+00 2.008435e+01 1.167257e+01
      vertex 1.800830e+00 5.758515e+00 1.167257e+01
    endloop
  endfacet
  facet normal 0.000000e+00 -1.000000e+00 0.000000e+00
    outer loop
      vertex 1.800830e+00 2.008435e+01 1.167257e+01
      vertex 1.800830e+00 2.008435e+01 1.795780e+01
      vertex -1.790731e+00 2.008435e+01 1.795780e+01
    endloop
  endfacet
  facet normal -0.000000e+00 -1.000000e+00 -0.000000e+00
    outer loop
      vertex -1.790731e+00 2.008435e+01 1.167257e+01
      vertex 1.800830e+00 2.008435e+01 1.167257e+01
      vertex -1.790731e+00 2.008435e+01 1.795780e+01
    endloop
  endfacet
  facet normal 1.000000e+00 0.000000e+00 0.000000e+00
    outer loop
      vertex -1.790731e+00 2.008435e+01 1.167257e+01
      vertex -1.790731e+00 2.008435e+01 1.795780e+01
      vertex -1.790731e+00 5.758515e+00 1.795780e+01
    endloop
  endfacet
  facet normal 1.000000e+00 0.000000e+00 0.000000e+00
    outer loop
      vertex -1.790731e+00 5.758515e+00 1.167257e+01
      vertex -1.790731e+00 2.008435e+01 1.167257e+01
      vertex -1.790731e+00 5.758515e+00 1.795780e+01
    endloop
  endfacet
  facet normal 0.000000e+00 -1.000000e+00 0.000000e+00
    outer loop
      vertex -1.790731e+00 5.758515e+00 1.167257e+01
      vertex -1.790731e+00 5.758515e+00 1.795780e+01
      vertex -2.765582e+00 5.758515e+00 1.795780e+01
    endloop
  endfacet
  facet normal -0.000000e+00 -1.000000e+00 -0.000000e+00
    outer loop
      vertex -2.765582e+00 5.758515e+00 1.167257e+01
      vertex -1.790731e+00 5.758515e+00 1.167257e+01
      vertex -2.765582e+00 5.758515e+00 1.795780e+01
    endloop
  endfacet
  facet normal 1.000000e+00 0.000000e+00 0.000000e+00
    outer loop
      vertex -2.765582e+00 5.758515e+00 1.167257e+01
      vertex -2.765582e+00 5.758515e+00 1.795780e+01
      vertex -2.765582e+00 2.136654e+00 1.795780e+01
    endloop
  endfacet
  facet normal 1.000000e+00 0.000000e+00 0.000000e+00
    outer loop
      vertex -2.765582e+00 2.136654e+00 1.167257e+01
      vertex -2.765582e+00 5.758515e+00 1.167257e+01
      vertex -2.765582e+00 2.136654e+00 1.795780e+01
    endloop
  endfacet
  facet normal 0.000000e+00 0.000000e+00 1.000000e+00
    outer loop
      vertex 1.091305e+01 -1.968944e+01 1.167257e+01
      vertex 1.091305e+01 -1.967935e+01 1.167257e+01
      vertex -1.090295e+01 -1.967935e+01 1.167257e+01
    endloop
  endfacet
  facet normal 0.000000e+00 0.000000e+00 1.000000e+00
    outer loop
      vertex -1.090295e+01 -1.968944e+01 1.167257e+01
      vertex 1.091305e+01 -1.968944e+01 1.167257e+01
      vertex -1.090295e+01 -1.967935e+01 1.167257e+01
    endloop
  endfacet
  facet normal 0.000000e+00 1.000000e+00 0.000000e+00
    outer loop
      vertex 1.091305e+01 -1.967935e+01 1.167257e+01
      vertex 1.091305e+01 -1.967935e+01 3.206750e+00
      vertex -1.090295e+01 -1.967935e+01 1.167257e+01
    endloop
  endfacet
  facet normal 0.000000e+00 1.000000e+00 0.000000e+00
    outer loop
      vertex -1.090295e+01 -1.967935e+01 1.167257e+01
      vertex 1.091305e+01 -1.967935e+01 3.206750e+00
      vertex -1.090295e+01 -1.967935e+01 3.206750e+00
    endloop
  endfacet
  facet normal 0.000000e+00 0.000000e+00 1.000000e+00
    outer loop
      vertex 1.091305e+01 -1.967935e+01 3.206750e+00
      vertex 1.091305e+01 2.136654e+00 3.206750e+00
      vertex -1.090295e+01 2.136654e+00 3.206750e+00
    endloop
  endfacet
  facet normal 0.000000e+00 0.000000e+00 1.000000e+00
    outer loop
      vertex -1.090295e+01 -1.967935e+01 3.206750e+00
      vertex 1.091305e+01 -1.967935e+01 3.206750e+00
      vertex -1.090295e+01 2.136654e+00 3.206750e+00
    endloop
  endfacet
  facet normal 0.000000e+00 0.000000e+00 1.000000e+00
    outer loop
      vertex -1.790731e+00 5.758515e+00 1.167257e+01
      vertex -2.765582e+00 5.718114e+00 1.167257e+01
      vertex -1.790731e+00 5.718114e+00 1.167257e+01
    endloop
  endfacet
  facet normal 0.000000e+00 0.000000e+00 1.000000e+00
    outer loop
      vertex -1.790731e+00 5.758515e+00 1.167257e+01
      vertex -2.765582e+00 5.758515e+00 1.167257e+01
      vertex -2.765582e+00 5.718114e+00 1.167257e+01
    endloop
  endfacet
  facet normal NaN NaN NaN
    outer loop
      vertex 1.800830e+00 5.758515e+00 1.167257e+01
      vertex 1.800830e+00 2.008435e+01 1.167257e+01
      vertex 1.800830e+00 2.008233e+01 1.167257e+01
    endloop
  endfacet
  facet normal NaN NaN NaN
    outer loop
      vertex -2.765582e+00 2.136654e+00 1.167257e+01
      vertex -2.765582e+00 5.718114e+00 1.167257e+01
      vertex -2.765582e+00 5.758515e+00 1.167257e+01
    endloop
  endfacet
  facet normal 0.000000e+00 0.000000e+00 1.000000e+00
    outer loop
      vertex 1.800830e+00 2.008435e+01 1.167257e+01
      vertex -1.790731e+00 2.008233e+01 1.167257e+01
      vertex 1.800830e+00 2.008233e+01 1.167257e+01
    endloop
  endfacet
  facet normal NaN NaN NaN
    outer loop
      vertex 1.800830e+00 5.758515e+00 1.167257e+01
      vertex 1.800830e+00 2.008233e+01 1.167257e+01
      vertex 1.800830e+00 5.718114e+00 1.167257e+01
    endloop
  endfacet
  facet normal NaN NaN NaN
    outer loop
      vertex 2.775682e+00 2.136654e+00 1.167257e+01
      vertex 2.775682e+00 5.758515e+00 1.167257e+01
      vertex 2.775682e+00 5.718114e+00 1.167257e+01
    endloop
  endfacet
  facet normal 0.000000e+00 0.000000e+00 1.000000e+00
    outer loop
      vertex 2.775682e+00 5.718114e+00 1.167257e+01
      vertex 1.800830e+00 5.758515e+00 1.167257e+01
      vertex 1.800830e+00 5.718114e+00 1.167257e+01
    endloop
  endfacet
  facet normal 0.000000e+00 0.000000e+00 1.000000e+00
    outer loop
      vertex 1.800830e+00 2.008435e+01 1.167257e+01
      vertex -1.790731e+00 2.008435e+01 1.167257e+01
      vertex -1.790731e+00 2.008233e+01 1.167257e+01
    endloop
  endfacet
  facet normal NaN NaN NaN
    outer loop
      vertex -1.790731e+00 2.008233e+01 1.167257e+01
      vertex -1.790731e+00 5.758515e+00 1.167257e+01
      vertex -1.790731e+00 5.718114e+00 1.167257e+01
    endloop
  endfacet
  facet normal NaN NaN NaN
    outer loop
      vertex -1.790731e+00 2.008435e+01 1.167257e+01
      vertex -1.790731e+00 5.758515e+00 1.167257e+01
      vertex -1.790731e+00 2.008233e+01 1.167257e+01
    endloop
  endfacet
  facet normal 0.000000e+00 0.000000e+00 1.000000e+00
    outer loop
      vertex 2.775682e+00 5.758515e+00 1.167257e+01
      vertex 1.800830e+00 5.758515e+00 1.167257e+01
      vertex 2.775682e+00 5.718114e+00 1.167257e+01
    endloop
  endfacet
  facet normal 9.990482e-01 0.000000e+00 4.362100e-02
    outer loop
      vertex -2.755039e+00 2.136654e+00 1.143109e+01
      vertex -2.755039e+00 5.718114e+00 1.143109e+01
      vertex -2.765582e+00 5.718114e+00 1.167257e+01
    endloop
  endfacet
  facet normal 9.990482e-01 0.000000e+00 4.362100e-02
    outer loop
      vertex -2.765582e+00 2.136654e+00 1.167257e+01
      vertex -2.755039e+00 2.136654e+00 1.143109e+01
      vertex -2.765582e+00 5.718114e+00 1.167257e+01
    endloop
  endfacet
  facet normal 9.914452e-01 0.000000e+00 1.305230e-01
    outer loop
      vertex -2.723491e+00 2.136654e+00 1.119146e+01
      vertex -2.723491e+00 5.718114e+00 1.119146e+01
      vertex -2.755039e+00 5.718114e+00 1.143109e+01
    endloop
  endfacet
  facet normal 9.914452e-01 0.000000e+00 1.305230e-01
    outer loop
      vertex -2.755039e+00 2.136654e+00 1.143109e+01
      vertex -2.723491e+00 2.136654e+00 1.119146e+01
      vertex -2.755039e+00 5.718114e+00 1.143109e+01
    endloop
  endfacet
  facet normal 9.762957e-01 0.000000e+00 2.164409e-01
    outer loop
      vertex -2.671176e+00 2.136654e+00 1.095548e+01
      vertex -2.671176e+00 5.718114e+00 1.095548e+01
      vertex -2.723491e+00 5.718114e+00 1.119146e+01
    endloop
  endfacet
  facet normal 9.762957e-01 0.000000e+00 2.164409e-01
    outer loop
      vertex -2.723491e+00 2.136654e+00 1.119146e+01
      vertex -2.671176e+00 2.136654e+00 1.095548e+01
      vertex -2.723491e+00 5.718114e+00 1.119146e+01
    endloop
  endfacet
  facet normal 9.537172e-01 0.000000e+00 3.007050e-01
    outer loop
      vertex -2.598493e+00 2.136654e+00 1.072496e+01
      vertex -2.598493e+00 5.718114e+00 1.072496e+01
      vertex -2.671176e+00 5.718114e+00 1.095548e+01
    endloop
  endfacet
  facet normal 9.537172e-01 0.000000e+00 3.007050e-01
    outer loop
      vertex -2.671176e+00 2.136654e+00 1.095548e+01
      vertex -2.598493e+00 2.136654e+00 1.072496e+01
      vertex -2.671176e+00 5.718114e+00 1.095548e+01
    endloop
  endfacet
  facet normal 9.238793e-01 0.000000e+00 3.826841e-01
    outer loop
      vertex -2.505996e+00 2.136654e+00 1.050165e+01
      vertex -2.505996e+00 5.718114e+00 1.050165e+01
      vertex -2.598493e+00 5.718114e+00 1.072496e+01
    endloop
  endfacet
  facet normal 9.238793e-01 0.000000e+00 3.826841e-01
    outer loop
      vertex -2.598493e+00 2.136654e+00 1.072496e+01
      vertex -2.505996e+00 2.136654e+00 1.050165e+01
      vertex -2.598493e+00 5.718114e+00 1.072496e+01
    endloop
  endfacet
  facet normal 8.870107e-01 0.000000e+00 4.617488e-01
    outer loop
      vertex -2.394388e+00 2.136654e+00 1.028725e+01
      vertex -2.394388e+00 5.718114e+00 1.028725e+01
      vertex -2.505996e+00 5.718114e+00 1.050165e+01
    endloop
  endfacet
  facet normal 8.870107e-01 0.000000e+00 4.617488e-01
    outer loop
      vertex -2.505996e+00 2.136654e+00 1.050165e+01
      vertex -2.394388e+00 2.136654e+00 1.028725e+01
      vertex -2.505996e+00 5.718114e+00 1.050165e+01
    endloop
  endfacet
  facet normal 8.433919e-01 0.000000e+00 5.372989e-01
    outer loop
      vertex -2.264519e+00 2.136654e+00 1.008340e+01
      vertex -2.264519e+00 5.718114e+00 1.008340e+01
      vertex -2.394388e+00 5.718114e+00 1.028725e+01
    endloop
  endfacet
  facet normal 8.433919e-01 0.000000e+00 5.372989e-01
    outer loop
      vertex -2.394388e+00 2.136654e+00 1.028725e+01
      vertex -2.264519e+00 2.136654e+00 1.008340e+01
      vertex -2.394388e+00 5.718114e+00 1.028725e+01
    endloop
  endfacet
  facet normal 7.933529e-01 0.000000e+00 6.087620e-01
    outer loop
      vertex -2.117378e+00 2.136654e+00 9.891642e+00
      vertex -2.117378e+00 5.718114e+00 9.891642e+00
      vertex -2.264519e+00 5.718114e+00 1.008340e+01
    endloop
  endfacet
  facet normal 7.933529e-01 0.000000e+00 6.087620e-01
    outer loop
      vertex -2.264519e+00 2.136654e+00 1.008340e+01
      vertex -2.117378e+00 2.136654e+00 9.891642e+00
      vertex -2.264519e+00 5.718114e+00 1.008340e+01
    endloop
  endfacet
  facet normal 7.372764e-01 0.000000e+00 6.755913e-01
    outer loop
      vertex -1.954082e+00 2.136654e+00 9.713437e+00
      vertex -1.954082e+00 5.718114e+00 9.713437e+00
      vertex -2.117378e+00 5.718114e+00 9.891642e+00
    endloop
  endfacet
  facet normal 7.372764e-01 0.000000e+00 6.755913e-01
    outer loop
      vertex -2.117378e+00 2.136654e+00 9.891642e+00
      vertex -1.954082e+00 2.136654e+00 9.713437e+00
      vertex -2.117378e+00 5.718114e+00 9.891642e+00
    endloop
  endfacet
  facet normal 6.755913e-01 0.000000e+00 7.372764e-01
    outer loop
      vertex -1.775878e+00 2.136654e+00 9.550143e+00
      vertex -1.775878e+00 5.718114e+00 9.550143e+00
      vertex -1.954082e+00 5.718114e+00 9.713437e+00
    endloop
  endfacet
  facet normal 6.755913e-01 0.000000e+00 7.372764e-01
    outer loop
      vertex -1.954082e+00 2.136654e+00 9.713437e+00
      vertex -1.775878e+00 2.136654e+00 9.550143e+00
      vertex -1.954082e+00 5.718114e+00 9.713437e+00
    endloop
  endfacet
  facet normal 6.087620e-01 0.000000e+00 7.933529e-01
    outer loop
      vertex -1.584120e+00 2.136654e+00 9.403001e+00
      vertex -1.584120e+00 5.718114e+00 9.403001e+00
      vertex -1.775878e+00 5.718114e+00 9.550143e+00
    endloop
  endfacet
  facet normal 6.087620e-01 0.000000e+00 7.933529e-01
    outer loop
      vertex -1.775878e+00 2.136654e+00 9.550143e+00
      vertex -1.584120e+00 2.136654e+00 9.403001e+00
      vertex -1.775878e+00 5.718114e+00 9.550143e+00
    endloop
  endfacet
  facet normal 5.372989e-01 0.000000e+00 8.433919e-01
    outer loop
      vertex -1.380266e+00 2.136654e+00 9.273132e+00
      vertex -1.380266e+00 5.718114e+00 9.273132e+00
      vertex -1.584120e+00 5.718114e+00 9.403001e+00
    endloop
  endfacet
  facet normal 5.372989e-01 0.000000e+00 8.433919e-01
    outer loop
      vertex -1.584120e+00 2.136654e+00 9.403001e+00
      vertex -1.380266e+00 2.136654e+00 9.273132e+00
      vertex -1.584120e+00 5.718114e+00 9.403001e+00
    endloop
  endfacet
  facet normal 4.617488e-01 0.000000e+00 8.870107e-01
    outer loop
      vertex -1.165869e+00 2.136654e+00 9.161524e+00
      vertex -1.165869e+00 5.718114e+00 9.161524e+00
      vertex -1.380266e+00 5.718114e+00 9.273132e+00
    endloop
  endfacet
  facet normal 4.617488e-01 0.000000e+00 8.870107e-01
    outer loop
      vertex -1.380266e+00 2.136654e+00 9.273132e+00
      vertex -1.165869e+00 2.136654e+00 9.161524e+00
      vertex -1.380266e+00 5.718114e+00 9.273132e+00
    endloop
  endfacet
  facet normal 3.826841e-01 0.000000e+00 9.238793e-01
    outer loop
      vertex -9.425627e-01 2.136654e+00 9.069027e+00
      vertex -9.425627e-01 5.718114e+00 9.069027e+00
      vertex -1.165869e+00 5.718114e+00 9.161524e+00
    endloop
  endfacet
  facet normal 3.826841e-01 0.000000e+00 9.238793e-01
    outer loop
      vertex -1.165869e+00 2.136654e+00 9.161524e+00
      vertex -9.425627e-01 2.136654e+00 9.069027e+00
      vertex -1.165869e+00 5.718114e+00 9.161524e+00
    endloop
  endfacet
  facet normal 3.007050e-01 0.000000e+00 9.537172e-01
    outer loop
      vertex -7.120422e-01 2.136654e+00 8.996345e+00
      vertex -7.120422e-01 5.718114e+00 8.996345e+00
      vertex -9.425627e-01 5.718114e+00 9.069027e+00
    endloop
  endfacet
  facet normal 3.007050e-01 0.000000e+00 9.537172e-01
    outer loop
      vertex -9.425627e-01 2.136654e+00 9.069027e+00
      vertex -7.120422e-01 2.136654e+00 8.996345e+00
      vertex -9.425627e-01 5.718114e+00 9.069027e+00
    endloop
  endfacet
  facet normal 2.164409e-01 0.000000e+00 9.762957e-01
    outer loop
      vertex -4.760661e-01 2.136654e+00 8.944030e+00
      vertex -4.760661e-01 5.718114e+00 8.944030e+00
      vertex -7.120422e-01 5.718114e+00 8.996345e+00
    endloop
  endfacet
  facet normal 2.164409e-01 0.000000e+00 9.762957e-01
    outer loop
      vertex -7.120422e-01 2.136654e+00 8.996345e+00
      vertex -4.760661e-01 2.136654e+00 8.944030e+00
      vertex -7.120422e-01 5.718114e+00 8.996345e+00
    endloop
  endfacet
  facet normal 1.305230e-01 0.000000e+00 9.914452e-01
    outer loop
      vertex -2.364269e-01 2.136654e+00 8.912481e+00
      vertex -2.364269e-01 5.718114e+00 8.912481e+00
      vertex -4.760661e-01 5.718114e+00 8.944030e+00
    endloop
  endfacet
  facet normal 1.305230e-01 0.000000e+00 9.914452e-01
    outer loop
      vertex -4.760661e-01 2.136654e+00 8.944030e+00
      vertex -2.364269e-01 2.136654e+00 8.912481e+00
      vertex -4.760661e-01 5.718114e+00 8.944030e+00
    endloop
  endfacet
  facet normal 4.362100e-02 0.000000e+00 9.990482e-01
    outer loop
      vertex 5.050115e-03 2.136654e+00 8.901938e+00
      vertex 5.050115e-03 5.718114e+00 8.901938e+00
      vertex -2.364269e-01 5.718114e+00 8.912481e+00
    endloop
  endfacet
  facet normal 4.362100e-02 0.000000e+00 9.990482e-01
    outer loop
      vertex -2.364269e-01 2.136654e+00 8.912481e+00
      vertex 5.050115e-03 2.136654e+00 8.901938e+00
      vertex -2.364269e-01 5.718114e+00 8.912481e+00
    endloop
  endfacet
  facet normal -4.362100e-02 0.000000e+00 9.990482e-01
    outer loop
      vertex 2.465261e-01 2.136654e+00 8.912481e+00
      vertex 2.465261e-01 5.718114e+00 8.912481e+00
      vertex 5.050115e-03 5.718114e+00 8.901938e+00
    endloop
  endfacet
  facet normal -4.362100e-02 0.000000e+00 9.990482e-01
    outer loop
      vertex 5.050115e-03 2.136654e+00 8.901938e+00
      vertex 2.465261e-01 2.136654e+00 8.912481e+00
      vertex 5.050115e-03 5.718114e+00 8.901938e+00
    endloop
  endfacet
  facet normal -1.305230e-01 0.000000e+00 9.914452e-01
    outer loop
      vertex 4.861654e-01 2.136654e+00 8.944030e+00
      vertex 4.861654e-01 5.718114e+00 8.944030e+00
      vertex 2.465261e-01 5.718114e+00 8.912481e+00
    endloop
  endfacet
  facet normal -1.305230e-01 0.000000e+00 9.914452e-01
    outer loop
      vertex 2.465261e-01 2.136654e+00 8.912481e+00
      vertex 4.861654e-01 2.136654e+00 8.944030e+00
      vertex 2.465261e-01 5.718114e+00 8.912481e+00
    endloop
  endfacet
  facet normal -2.164409e-01 0.000000e+00 9.762957e-01
    outer loop
      vertex 7.221415e-01 2.136654e+00 8.996345e+00
      vertex 7.221415e-01 5.718114e+00 8.996345e+00
      vertex 4.861654e-01 5.718114e+00 8.944030e+00
    endloop
  endfacet
  facet normal -2.164409e-01 0.000000e+00 9.762957e-01
    outer loop
      vertex 4.861654e-01 2.136654e+00 8.944030e+00
      vertex 7.221415e-01 2.136654e+00 8.996345e+00
      vertex 4.861654e-01 5.718114e+00 8.944030e+00
    endloop
  endfacet
  facet normal -3.007050e-01 0.000000e+00 9.537172e-01
    outer loop
      vertex 9.526620e-01 2.136654e+00 9.069027e+00
      vertex 9.526620e-01 5.718114e+00 9.069027e+00
      vertex 7.221415e-01 5.718114e+00 8.996345e+00
    endloop
  endfacet
  facet normal -3.007050e-01 0.000000e+00 9.537172e-01
    outer loop
      vertex 7.221415e-01 2.136654e+00 8.996345e+00
      vertex 9.526620e-01 2.136654e+00 9.069027e+00
      vertex 7.221415e-01 5.718114e+00 8.996345e+00
    endloop
  endfacet
  facet normal -3.826841e-01 0.000000e+00 9.238793e-01
    outer loop
      vertex 1.175969e+00 2.136654e+00 9.161524e+00
      vertex 1.175969e+00 5.718114e+00 9.161524e+00
      vertex 9.526620e-01 5.718114e+00 9.069027e+00
    endloop
  endfacet
  facet normal -3.826841e-01 0.000000e+00 9.238793e-01
    outer loop
      vertex 9.526620e-01 2.136654e+00 9.069027e+00
      vertex 1.175969e+00 2.136654e+00 9.161524e+00
      vertex 9.526620e-01 5.718114e+00 9.069027e+00
    endloop
  endfacet
  facet normal -4.617488e-01 0.000000e+00 8.870107e-01
    outer loop
      vertex 1.390365e+00 2.136654e+00 9.273132e+00
      vertex 1.390365e+00 5.718114e+00 9.273132e+00
      vertex 1.175969e+00 5.718114e+00 9.161524e+00
    endloop
  endfacet
  facet normal -4.617488e-01 0.000000e+00 8.870107e-01
    outer loop
      vertex 1.175969e+00 2.136654e+00 9.161524e+00
      vertex 1.390365e+00 2.136654e+00 9.273132e+00
      vertex 1.175969e+00 5.718114e+00 9.161524e+00
    endloop
  endfacet
  facet normal -5.372989e-01 0.000000e+00 8.433919e-01
    outer loop
      vertex 1.594219e+00 2.136654e+00 9.403001e+00
      vertex 1.594219e+00 5.718114e+00 9.403001e+00
      vertex 1.390365e+00 5.718114e+00 9.273132e+00
    endloop
  endfacet
  facet normal -5.372989e-01 0.000000e+00 8.433919e-01
    outer loop
      vertex 1.390365e+00 2.136654e+00 9.273132e+00
      vertex 1.594219e+00 2.136654e+00 9.403001e+00
      vertex 1.390365e+00 5.718114e+00 9.273132e+00
    endloop
  endfacet
  facet normal -6.087620e-01 0.000000e+00 7.933529e-01
    outer loop
      vertex 1.785977e+00 2.136654e+00 9.550143e+00
      vertex 1.785977e+00 5.718114e+00 9.550143e+00
      vertex 1.594219e+00 5.718114e+00 9.403001e+00
    endloop
  endfacet
  facet normal -6.087620e-01 0.000000e+00 7.933529e-01
    outer loop
      vertex 1.594219e+00 2.136654e+00 9.403001e+00
      vertex 1.785977e+00 2.136654e+00 9.550143e+00
      vertex 1.594219e+00 5.718114e+00 9.403001e+00
    endloop
  endfacet
  facet normal -6.755913e-01 0.000000e+00 7.372764e-01
    outer loop
      vertex 1.964182e+00 2.136654e+00 9.713437e+00
      vertex 1.964182e+00 5.718114e+00 9.713437e+00
      vertex 1.785977e+00 5.718114e+00 9.550143e+00
    endloop
  endfacet
  facet normal -6.755913e-01 0.000000e+00 7.372764e-01
    outer loop
      vertex 1.785977e+00 2.136654e+00 9.550143e+00
      vertex 1.964182e+00 2.136654e+00 9.713437e+00
      vertex 1.785977e+00 5.718114e+00 9.550143e+00
    endloop
  endfacet
  facet normal -7.372764e-01 0.000000e+00 6.755913e-01
    outer loop
      vertex 2.127476e+00 5.718114e+00 9.891642e+00
      vertex 1.964182e+00 5.718114e+00 9.713437e+00
      vertex 2.127476e+00 2.136654e+00 9.891642e+00
    endloop
  endfacet
  facet normal -7.372764e-01 0.000000e+00 6.755913e-01
    outer loop
      vertex 2.127476e+00 2.136654e+00 9.891642e+00
      vertex 1.964182e+00 5.718114e+00 9.713437e+00
      vertex 1.964182e+00 2.136654e+00 9.713437e+00
    endloop
  endfacet
  facet normal -7.933529e-01 0.000000e+00 6.087620e-01
    outer loop
      vertex 2.274618e+00 5.718114e+00 1.008340e+01
      vertex 2.127476e+00 5.718114e+00 9.891642e+00
      vertex 2.274618e+00 2.136654e+00 1.008340e+01
    endloop
  endfacet
  facet normal -7.933529e-01 0.000000e+00 6.087620e-01
    outer loop
      vertex 2.274618e+00 2.136654e+00 1.008340e+01
      vertex 2.127476e+00 5.718114e+00 9.891642e+00
      vertex 2.127476e+00 2.136654e+00 9.891642e+00
    endloop
  endfacet
  facet normal -8.433919e-01 0.000000e+00 5.372989e-01
    outer loop
      vertex 2.404488e+00 5.718114e+00 1.028725e+01
      vertex 2.274618e+00 5.718114e+00 1.008340e+01
      vertex 2.404488e+00 2.136654e+00 1.028725e+01
    endloop
  endfacet
  facet normal -8.433919e-01 0.000000e+00 5.372989e-01
    outer loop
      vertex 2.404488e+00 2.136654e+00 1.028725e+01
      vertex 2.274618e+00 5.718114e+00 1.008340e+01
      vertex 2.274618e+00 2.136654e+00 1.008340e+01
    endloop
  endfacet
  facet normal -8.870107e-01 0.000000e+00 4.617488e-01
    outer loop
      vertex 2.516095e+00 5.718114e+00 1.050165e+01
      vertex 2.404488e+00 5.718114e+00 1.028725e+01
      vertex 2.516095e+00 2.136654e+00 1.050165e+01
    endloop
  endfacet
  facet normal -8.870107e-01 0.000000e+00 4.617488e-01
    outer loop
      vertex 2.516095e+00 2.136654e+00 1.050165e+01
      vertex 2.404488e+00 5.718114e+00 1.028725e+01
      vertex 2.404488e+00 2.136654e+00 1.028725e+01
    endloop
  endfacet
  facet normal -9.238793e-01 0.000000e+00 3.826841e-01
    outer loop
      vertex 2.608593e+00 5.718114e+00 1.072496e+01
      vertex 2.516095e+00 5.718114e+00 1.050165e+01
      vertex 2.608593e+00 2.136654e+00 1.072496e+01
    endloop
  endfacet
  facet normal -9.238793e-01 0.000000e+00 3.826841e-01
    outer loop
      vertex 2.608593e+00 2.136654e+00 1.072496e+01
      vertex 2.516095e+00 5.718114e+00 1.050165e+01
      vertex 2.516095e+00 2.136654e+00 1.050165e+01
    endloop
  endfacet
  facet normal -9.537172e-01 0.000000e+00 3.007050e-01
    outer loop
      vertex 2.681274e+00 5.718114e+00 1.095548e+01
      vertex 2.608593e+00 5.718114e+00 1.072496e+01
      vertex 2.681274e+00 2.136654e+00 1.095548e+01
    endloop
  endfacet
  facet normal -9.537172e-01 0.000000e+00 3.007050e-01
    outer loop
      vertex 2.681274e+00 2.136654e+00 1.095548e+01
      vertex 2.608593e+00 5.718114e+00 1.072496e+01
      vertex 2.608593e+00 2.136654e+00 1.072496e+01
    endloop
  endfacet
  facet normal -9.762957e-01 0.000000e+00 2.164409e-01
    outer loop
      vertex 2.733590e+00 5.718114e+00 1.119146e+01
      vertex 2.681274e+00 5.718114e+00 1.095548e+01
      vertex 2.733590e+00 2.136654e+00 1.119146e+01
    endloop
  endfacet
  facet normal -9.762957e-01 0.000000e+00 2.164409e-01
    outer loop
      vertex 2.733590e+00 2.136654e+00 1.119146e+01
      vertex 2.681274e+00 5.718114e+00 1.095548e+01
      vertex 2.681274e+00 2.136654e+00 1.095548e+01
    endloop
  endfacet
  facet normal -9.914452e-01 0.000000e+00 1.305230e-01
    outer loop
      vertex 2.765139e+00 5.718114e+00 1.143109e+01
      vertex 2.733590e+00 5.718114e+00 1.119146e+01
      vertex 2.765139e+00 2.136654e+00 1.143109e+01
    endloop
  endfacet
  facet normal -9.914452e-01 0.000000e+00 1.305230e-01
    outer loop
      vertex 2.765139e+00 2.136654e+00 1.143109e+01
      vertex 2.733590e+00 5.718114e+00 1.119146e+01
      vertex 2.733590e+00 2.136654e+00 1.119146e+01
    endloop
  endfacet
  facet normal -9.990482e-01 0.000000e+00 4.362100e-02
    outer loop
      vertex 2.775682e+00 5.718114e+00 1.167257e+01
      vertex 2.765139e+00 5.718114e+00 1.143109e+01
      vertex 2.775682e+00 2.136654e+00 1.167257e+01
    endloop
  endfacet
  facet normal -9.990482e-01 0.000000e+00 4.362100e-02
    outer loop
      vertex 2.775682e+00 2.136654e+00 1.167257e+01
      vertex 2.765139e+00 5.718114e+00 1.143109e+01
      vertex 2.765139e+00 2.136654e+00 1.143109e+01
    endloop
  endfacet
  facet normal 0.000000e+00 -1.000000e+00 0.000000e+00
    outer loop
      vertex -2.755039e+00 5.718114e+00 1.143109e+01
      vertex -2.723491e+00 5.718114e+00 1.119146e+01
      vertex -2.671176e+00 5.718114e+00 1.095548e+01
    endloop
  endfacet
  facet normal 0.000000e+00 -1.000000e+00 0.000000e+00
    outer loop
      vertex -2.505996e+00 5.718114e+00 1.050165e+01
      vertex -2.755039e+00 5.718114e+00 1.143109e+01
      vertex -2.598493e+00 5.718114e+00 1.072496e+01
    endloop
  endfacet
  facet normal 0.000000e+00 -1.000000e+00 0.000000e+00
    outer loop
      vertex -2.598493e+00 5.718114e+00 1.072496e+01
      vertex -2.755039e+00 5.718114e+00 1.143109e+01
      vertex -2.671176e+00 5.718114e+00 1.095548e+01
    endloop
  endfacet
  facet normal 0.000000e+00 -1.000000e+00 0.000000e+00
    outer loop
      vertex -2.394388e+00 5.718114e+00 1.028725e+01
      vertex -2.755039e+00 5.718114e+00 1.143109e+01
      vertex -2.505996e+00 5.718114e+00 1.050165e+01
    endloop
  endfacet
  facet normal 0.000000e+00 -1.000000e+00 0.000000e+00
    outer loop
      vertex -2.264519e+00 5.718114e+00 1.008340e+01
      vertex -2.755039e+00 5.718114e+00 1.143109e+01
      vertex -2.394388e+00 5.718114e+00 1.028725e+01
    endloop
  endfacet
  facet normal 0.000000e+00 -1.000000e+00 0.000000e+00
    outer loop
      vertex -2.117378e+00 5.718114e+00 9.891642e+00
      vertex -2.755039e+00 5.718114e+00 1.143109e+01
      vertex -2.264519e+00 5.718114e+00 1.008340e+01
    endloop
  endfacet
  facet normal 0.000000e+00 -1.000000e+00 0.000000e+00
    outer loop
      vertex -1.954082e+00 5.718114e+00 9.713437e+00
      vertex -2.755039e+00 5.718114e+00 1.143109e+01
      vertex -2.117378e+00 5.718114e+00 9.891642e+00
    endloop
  endfacet
  facet normal 0.000000e+00 -1.000000e+00 0.000000e+00
    outer loop
      vertex -1.775878e+00 5.718114e+00 9.550143e+00
      vertex -2.755039e+00 5.718114e+00 1.143109e+01
      vertex -1.954082e+00 5.718114e+00 9.713437e+00
    endloop
  endfacet
  facet normal 0.000000e+00 -1.000000e+00 0.000000e+00
    outer loop
      vertex -1.584120e+00 5.718114e+00 9.403001e+00
      vertex -2.755039e+00 5.718114e+00 1.143109e+01
      vertex -1.775878e+00 5.718114e+00 9.550143e+00
    endloop
  endfacet
  facet normal 0.000000e+00 -1.000000e+00 0.000000e+00
    outer loop
      vertex -1.380266e+00 5.718114e+00 9.273132e+00
      vertex -2.755039e+00 5.718114e+00 1.143109e+01
      vertex -1.584120e+00 5.718114e+00 9.403001e+00
    endloop
  endfacet
  facet normal 0.000000e+00 -1.000000e+00 0.000000e+00
    outer loop
      vertex -1.165869e+00 5.718114e+00 9.161524e+00
      vertex -2.755039e+00 5.718114e+00 1.143109e+01
      vertex -1.380266e+00 5.718114e+00 9.273132e+00
    endloop
  endfacet
  facet normal 0.000000e+00 -1.000000e+00 0.000000e+00
    outer loop
      vertex -9.425627e-01 5.718114e+00 9.069027e+00
      vertex -2.755039e+00 5.718114e+00 1.143109e+01
      vertex -1.165869e+00 5.718114e+00 9.161524e+00
    endloop
  endfacet
  facet normal 0.000000e+00 -1.000000e+00 0.000000e+00
    outer loop
      vertex -7.120422e-01 5.718114e+00 8.996345e+00
      vertex -2.755039e+00 5.718114e+00 1.143109e+01
      vertex -9.425627e-01 5.718114e+00 9.069027e+00
    endloop
  endfacet
  facet normal 0.000000e+00 -1.000000e+00 0.000000e+00
    outer loop
      vertex -4.760661e-01 5.718114e+00 8.944030e+00
      vertex -2.755039e+00 5.718114e+00 1.143109e+01
      vertex -7.120422e-01 5.718114e+00 8.996345e+00
    endloop
  endfacet
  facet normal 0.000000e+00 -1.000000e+00 0.000000e+00
    outer loop
      vertex -2.364269e-01 5.718114e+00 8.912481e+00
      vertex -2.755039e+00 5.718114e+00 1.143109e+01
      vertex -4.760661e-01 5.718114e+00 8.944030e+00
    endloop
  endfacet
  facet normal 0.000000e+00 -1.000000e+00 0.000000e+00
    outer loop
      vertex 5.050115e-03 5.718114e+00 8.901938e+00
      vertex -2.755039e+00 5.718114e+00 1.143109e+01
      vertex -2.364269e-01 5.718114e+00 8.912481e+00
    endloop
  endfacet
  facet normal 0.000000e+00 -1.000000e+00 0.000000e+00
    outer loop
      vertex 2.465261e-01 5.718114e+00 8.912481e+00
      vertex -2.755039e+00 5.718114e+00 1.143109e+01
      vertex 5.050115e-03 5.718114e+00 8.901938e+00
    endloop
  endfacet
  facet normal 0.000000e+00 -1.000000e+00 0.000000e+00
    outer loop
      vertex 4.861654e-01 5.718114e+00 8.944030e+00
      vertex -2.755039e+00 5.718114e+00 1.143109e+01
      vertex 2.465261e-01 5.718114e+00 8.912481e+00
    endloop
  endfacet
  facet normal 0.000000e+00 -1.000000e+00 0.000000e+00
    outer loop
      vertex -9.503628e-01 5.718114e+00 1.015204e+01
      vertex -2.755039e+00 5.718114e+00 1.143109e+01
      vertex 4.861654e-01 5.718114e+00 8.944030e+00
    endloop
  endfacet
  facet normal 0.000000e+00 -1.000000e+00 0.000000e+00
    outer loop
      vertex -1.398948e+00 5.718114e+00 1.055291e+01
      vertex -1.515481e+00 5.718114e+00 1.071716e+01
      vertex -2.755039e+00 5.718114e+00 1.143109e+01
    endloop
  endfacet
  facet normal 0.000000e+00 -1.000000e+00 0.000000e+00
    outer loop
      vertex -1.960144e-01 5.718114e+00 9.888082e+00
      vertex -3.945486e-01 5.718114e+00 9.921814e+00
      vertex 9.526620e-01 5.718114e+00 9.069027e+00
    endloop
  endfacet
  facet normal 0.000000e+00 -1.000000e+00 0.000000e+00
    outer loop
      vertex 5.050115e-03 5.718114e+00 9.876790e+00
      vertex -1.960144e-01 5.718114e+00 9.888082e+00
      vertex 1.175969e+00 5.718114e+00 9.161524e+00
    endloop
  endfacet
  facet normal 0.000000e+00 -1.000000e+00 0.000000e+00
    outer loop
      vertex 7.842088e-01 5.718114e+00 1.005463e+01
      vertex 5.981580e-01 5.718114e+00 9.977562e+00
      vertex 1.785977e+00 5.718114e+00 9.550143e+00
    endloop
  endfacet
  facet normal 0.000000e+00 -1.000000e+00 0.000000e+00
    outer loop
      vertex 5.981580e-01 5.718114e+00 9.977562e+00
      vertex 4.046478e-01 5.718114e+00 9.921814e+00
      vertex 1.594219e+00 5.718114e+00 9.403001e+00
    endloop
  endfacet
  facet normal 0.000000e+00 -1.000000e+00 0.000000e+00
    outer loop
      vertex 1.274858e+00 5.718114e+00 1.040276e+01
      vertex 1.124700e+00 5.718114e+00 1.026857e+01
      vertex 2.274618e+00 5.718114e+00 1.008340e+01
    endloop
  endfacet
  facet normal 0.000000e+00 -1.000000e+00 0.000000e+00
    outer loop
      vertex 1.409047e+00 5.718114e+00 1.055291e+01
      vertex 1.274858e+00 5.718114e+00 1.040276e+01
      vertex 2.404488e+00 5.718114e+00 1.028725e+01
    endloop
  endfacet
  facet normal 0.000000e+00 -1.000000e+00 0.000000e+00
    outer loop
      vertex 1.124700e+00 5.718114e+00 1.026857e+01
      vertex 9.604620e-01 5.718114e+00 1.015204e+01
      vertex 2.127476e+00 5.718114e+00 9.891642e+00
    endloop
  endfacet
  facet normal 0.000000e+00 -1.000000e+00 0.000000e+00
    outer loop
      vertex 1.700057e+00 5.718114e+00 1.107946e+01
      vertex 1.622992e+00 5.718114e+00 1.089341e+01
      vertex 2.681274e+00 5.718114e+00 1.095548e+01
    endloop
  endfacet
  facet normal 0.000000e+00 -1.000000e+00 0.000000e+00
    outer loop
      vertex 1.755805e+00 5.718114e+00 1.127297e+01
      vertex 1.700057e+00 5.718114e+00 1.107946e+01
      vertex 2.733590e+00 5.718114e+00 1.119146e+01
    endloop
  endfacet
  facet normal 0.000000e+00 -1.000000e+00 0.000000e+00
    outer loop
      vertex 1.622992e+00 5.718114e+00 1.089341e+01
      vertex 1.525581e+00 5.718114e+00 1.071716e+01
      vertex 2.608593e+00 5.718114e+00 1.072496e+01
    endloop
  endfacet
  facet normal 0.000000e+00 -1.000000e+00 0.000000e+00
    outer loop
      vertex 2.775682e+00 5.718114e+00 1.167257e+01
      vertex 1.789538e+00 5.718114e+00 1.147151e+01
      vertex 2.765139e+00 5.718114e+00 1.143109e+01
    endloop
  endfacet
  facet normal 0.000000e+00 -1.000000e+00 0.000000e+00
    outer loop
      vertex 2.765139e+00 5.718114e+00 1.143109e+01
      vertex 1.755805e+00 5.718114e+00 1.127297e+01
      vertex 2.733590e+00 5.718114e+00 1.119146e+01
    endloop
  endfacet
  facet normal 0.000000e+00 -1.000000e+00 0.000000e+00
    outer loop
      vertex 2.733590e+00 5.718114e+00 1.119146e+01
      vertex 1.700057e+00 5.718114e+00 1.107946e+01
      vertex 2.681274e+00 5.718114e+00 1.095548e+01
    endloop
  endfacet
  facet normal 0.000000e+00 -1.000000e+00 0.000000e+00
    outer loop
      vertex 2.681274e+00 5.718114e+00 1.095548e+01
      vertex 1.622992e+00 5.718114e+00 1.089341e+01
      vertex 2.608593e+00 5.718114e+00 1.072496e+01
    endloop
  endfacet
  facet normal 0.000000e+00 -1.000000e+00 0.000000e+00
    outer loop
      vertex 2.608593e+00 5.718114e+00 1.072496e+01
      vertex 1.525581e+00 5.718114e+00 1.071716e+01
      vertex 2.516095e+00 5.718114e+00 1.050165e+01
    endloop
  endfacet
  facet normal 0.000000e+00 -1.000000e+00 0.000000e+00
    outer loop
      vertex 2.516095e+00 5.718114e+00 1.050165e+01
      vertex 1.409047e+00 5.718114e+00 1.055291e+01
      vertex 2.404488e+00 5.718114e+00 1.028725e+01
    endloop
  endfacet
  facet normal 0.000000e+00 -1.000000e+00 0.000000e+00
    outer loop
      vertex 2.404488e+00 5.718114e+00 1.028725e+01
      vertex 1.274858e+00 5.718114e+00 1.040276e+01
      vertex 2.274618e+00 5.718114e+00 1.008340e+01
    endloop
  endfacet
  facet normal 0.000000e+00 -1.000000e+00 0.000000e+00
    outer loop
      vertex 2.274618e+00 5.718114e+00 1.008340e+01
      vertex 1.124700e+00 5.718114e+00 1.026857e+01
      vertex 2.127476e+00 5.718114e+00 9.891642e+00
    endloop
  endfacet
  facet normal 0.000000e+00 -1.000000e+00 0.000000e+00
    outer loop
      vertex -1.745706e+00 5.718114e+00 1.127297e+01
      vertex -1.779438e+00 5.718114e+00 1.147151e+01
      vertex -2.755039e+00 5.718114e+00 1.143109e+01
    endloop
  endfacet
  facet normal 0.000000e+00 -1.000000e+00 0.000000e+00
    outer loop
      vertex 2.127476e+00 5.718114e+00 9.891642e+00
      vertex 9.604620e-01 5.718114e+00 1.015204e+01
      vertex 1.964182e+00 5.718114e+00 9.713437e+00
    endloop
  endfacet
  facet normal 0.000000e+00 -1.000000e+00 0.000000e+00
    outer loop
      vertex 1.964182e+00 5.718114e+00 9.713437e+00
      vertex 7.842088e-01 5.718114e+00 1.005463e+01
      vertex 1.785977e+00 5.718114e+00 9.550143e+00
    endloop
  endfacet
  facet normal 0.000000e+00 -1.000000e+00 0.000000e+00
    outer loop
      vertex 1.785977e+00 5.718114e+00 9.550143e+00
      vertex 5.981580e-01 5.718114e+00 9.977562e+00
      vertex 1.594219e+00 5.718114e+00 9.403001e+00
    endloop
  endfacet
  facet normal 0.000000e+00 -1.000000e+00 0.000000e+00
    outer loop
      vertex 1.594219e+00 5.718114e+00 9.403001e+00
      vertex 4.046478e-01 5.718114e+00 9.921814e+00
      vertex 1.390365e+00 5.718114e+00 9.273132e+00
    endloop
  endfacet
  facet normal 0.000000e+00 -1.000000e+00 0.000000e+00
    outer loop
      vertex 1.390365e+00 5.718114e+00 9.273132e+00
      vertex 2.061137e-01 5.718114e+00 9.888082e+00
      vertex 1.175969e+00 5.718114e+00 9.161524e+00
    endloop
  endfacet
  facet normal 0.000000e+00 -1.000000e+00 0.000000e+00
    outer loop
      vertex 2.061137e-01 5.718114e+00 9.888082e+00
      vertex 5.050115e-03 5.718114e+00 9.876790e+00
      vertex 1.175969e+00 5.718114e+00 9.161524e+00
    endloop
  endfacet
  facet normal 0.000000e+00 -1.000000e+00 0.000000e+00
    outer loop
      vertex 1.175969e+00 5.718114e+00 9.161524e+00
      vertex -1.960144e-01 5.718114e+00 9.888082e+00
      vertex 9.526620e-01 5.718114e+00 9.069027e+00
    endloop
  endfacet
  facet normal 0.000000e+00 -1.000000e+00 0.000000e+00
    outer loop
      vertex 9.526620e-01 5.718114e+00 9.069027e+00
      vertex -3.945486e-01 5.718114e+00 9.921814e+00
      vertex 7.221415e-01 5.718114e+00 8.996345e+00
    endloop
  endfacet
  facet normal 0.000000e+00 -1.000000e+00 0.000000e+00
    outer loop
      vertex -1.264758e+00 5.718114e+00 1.040276e+01
      vertex -1.398948e+00 5.718114e+00 1.055291e+01
      vertex -2.755039e+00 5.718114e+00 1.143109e+01
    endloop
  endfacet
  facet normal 0.000000e+00 -1.000000e+00 0.000000e+00
    outer loop
      vertex -3.945486e-01 5.718114e+00 9.921814e+00
      vertex -5.880587e-01 5.718114e+00 9.977562e+00
      vertex 7.221415e-01 5.718114e+00 8.996345e+00
    endloop
  endfacet
  facet normal 0.000000e+00 -1.000000e+00 0.000000e+00
    outer loop
      vertex -5.880587e-01 5.718114e+00 9.977562e+00
      vertex -7.741097e-01 5.718114e+00 1.005463e+01
      vertex 7.221415e-01 5.718114e+00 8.996345e+00
    endloop
  endfacet
  facet normal 0.000000e+00 -1.000000e+00 0.000000e+00
    outer loop
      vertex 7.221415e-01 5.718114e+00 8.996345e+00
      vertex -9.503628e-01 5.718114e+00 1.015204e+01
      vertex 4.861654e-01 5.718114e+00 8.944030e+00
    endloop
  endfacet
  facet normal 0.000000e+00 -1.000000e+00 0.000000e+00
    outer loop
      vertex -1.114601e+00 5.718114e+00 1.026857e+01
      vertex -2.755039e+00 5.718114e+00 1.143109e+01
      vertex -9.503628e-01 5.718114e+00 1.015204e+01
    endloop
  endfacet
  facet normal 0.000000e+00 -1.000000e+00 0.000000e+00
    outer loop
      vertex -1.114601e+00 5.718114e+00 1.026857e+01
      vertex -1.264758e+00 5.718114e+00 1.040276e+01
      vertex -2.755039e+00 5.718114e+00 1.143109e+01
    endloop
  endfacet
  facet normal 0.000000e+00 -1.000000e+00 0.000000e+00
    outer loop
      vertex -7.741097e-01 5.718114e+00 1.005463e+01
      vertex -9.503628e-01 5.718114e+00 1.015204e+01
      vertex 7.221415e-01 5.718114e+00 8.996345e+00
    endloop
  endfacet
  facet normal 0.000000e+00 -1.000000e+00 0.000000e+00
    outer loop
      vertex -1.612892e+00 5.718114e+00 1.089341e+01
      vertex -1.689957e+00 5.718114e+00 1.107946e+01
      vertex -2.755039e+00 5.718114e+00 1.143109e+01
    endloop
  endfacet
  facet normal 0.000000e+00 -1.000000e+00 0.000000e+00
    outer loop
      vertex 4.046478e-01 5.718114e+00 9.921814e+00
      vertex 2.061137e-01 5.718114e+00 9.888082e+00
      vertex 1.390365e+00 5.718114e+00 9.273132e+00
    endloop
  endfacet
  facet normal 0.000000e+00 -1.000000e+00 0.000000e+00
    outer loop
      vertex 9.604620e-01 5.718114e+00 1.015204e+01
      vertex 7.842088e-01 5.718114e+00 1.005463e+01
      vertex 1.964182e+00 5.718114e+00 9.713437e+00
    endloop
  endfacet
  facet normal 0.000000e+00 -1.000000e+00 0.000000e+00
    outer loop
      vertex 1.525581e+00 5.718114e+00 1.071716e+01
      vertex 1.409047e+00 5.718114e+00 1.055291e+01
      vertex 2.516095e+00 5.718114e+00 1.050165e+01
    endloop
  endfacet
  facet normal 0.000000e+00 -1.000000e+00 0.000000e+00
    outer loop
      vertex -1.779438e+00 5.718114e+00 1.147151e+01
      vertex -1.790731e+00 5.718114e+00 1.167257e+01
      vertex -2.755039e+00 5.718114e+00 1.143109e+01
    endloop
  endfacet
  facet normal 0.000000e+00 -1.000000e+00 0.000000e+00
    outer loop
      vertex 1.789538e+00 5.718114e+00 1.147151e+01
      vertex 1.755805e+00 5.718114e+00 1.127297e+01
      vertex 2.765139e+00 5.718114e+00 1.143109e+01
    endloop
  endfacet
  facet normal 0.000000e+00 -1.000000e+00 0.000000e+00
    outer loop
      vertex -2.765582e+00 5.718114e+00 1.167257e+01
      vertex -2.755039e+00 5.718114e+00 1.143109e+01
      vertex -1.790731e+00 5.718114e+00 1.167257e+01
    endloop
  endfacet
  facet normal 0.000000e+00 -1.000000e+00 0.000000e+00
    outer loop
      vertex 1.800830e+00 5.718114e+00 1.167257e+01
      vertex 1.789538e+00 5.718114e+00 1.147151e+01
      vertex 2.775682e+00 5.718114e+00 1.167257e+01
    endloop
  endfacet
  facet normal 0.000000e+00 -1.000000e+00 0.000000e+00
    outer loop
      vertex -1.515481e+00 5.718114e+00 1.071716e+01
      vertex -1.612892e+00 5.718114e+00 1.089341e+01
      vertex -2.755039e+00 5.718114e+00 1.143109e+01
    endloop
  endfacet
  facet normal 0.000000e+00 -1.000000e+00 0.000000e+00
    outer loop
      vertex -1.689957e+00 5.718114e+00 1.107946e+01
      vertex -1.745706e+00 5.718114e+00 1.127297e+01
      vertex -2.755039e+00 5.718114e+00 1.143109e+01
    endloop
  endfacet
  facet normal -9.984268e-01 0.000000e+00 5.607200e-02
    outer loop
      vertex 1.800830e+00 2.008233e+01 1.167257e+01
      vertex 1.789538e+00 2.008233e+01 1.147151e+01
      vertex 1.800830e+00 5.718114e+00 1.167257e+01
    endloop
  endfacet
  facet normal -9.984268e-01 0.000000e+00 5.607200e-02
    outer loop
      vertex 1.800830e+00 5.718114e+00 1.167257e+01
      vertex 1.789538e+00 2.008233e+01 1.147151e+01
      vertex 1.789538e+00 5.718114e+00 1.147151e+01
    endloop
  endfacet
  facet normal 0.000000e+00 -1.000000e+00 0.000000e+00
    outer loop
      vertex -1.779438e+00 2.008233e+01 1.147151e+01
      vertex -1.745706e+00 2.008233e+01 1.127297e+01
      vertex -1.689957e+00 2.008233e+01 1.107946e+01
    endloop
  endfacet
  facet normal 0.000000e+00 -1.000000e+00 0.000000e+00
    outer loop
      vertex -1.515481e+00 2.008233e+01 1.071716e+01
      vertex -1.779438e+00 2.008233e+01 1.147151e+01
      vertex -1.612892e+00 2.008233e+01 1.089341e+01
    endloop
  endfacet
  facet normal 0.000000e+00 -1.000000e+00 0.000000e+00
    outer loop
      vertex -1.612892e+00 2.008233e+01 1.089341e+01
      vertex -1.779438e+00 2.008233e+01 1.147151e+01
      vertex -1.689957e+00 2.008233e+01 1.107946e+01
    endloop
  endfacet
  facet normal 0.000000e+00 -1.000000e+00 0.000000e+00
    outer loop
      vertex -1.398948e+00 2.008233e+01 1.055291e+01
      vertex -1.779438e+00 2.008233e+01 1.147151e+01
      vertex -1.515481e+00 2.008233e+01 1.071716e+01
    endloop
  endfacet
  facet normal 0.000000e+00 -1.000000e+00 0.000000e+00
    outer loop
      vertex -1.264758e+00 2.008233e+01 1.040276e+01
      vertex -1.779438e+00 2.008233e+01 1.147151e+01
      vertex -1.398948e+00 2.008233e+01 1.055291e+01
    endloop
  endfacet
  facet normal 0.000000e+00 -1.000000e+00 0.000000e+00
    outer loop
      vertex -1.114601e+00 2.008233e+01 1.026857e+01
      vertex -1.779438e+00 2.008233e+01 1.147151e+01
      vertex -1.264758e+00 2.008233e+01 1.040276e+01
    endloop
  endfacet
  facet normal 0.000000e+00 -1.000000e+00 0.000000e+00
    outer loop
      vertex -9.503628e-01 2.008233e+01 1.015204e+01
      vertex -1.779438e+00 2.008233e+01 1.147151e+01
      vertex -1.114601e+00 2.008233e+01 1.026857e+01
    endloop
  endfacet
  facet normal 0.000000e+00 -1.000000e+00 0.000000e+00
    outer loop
      vertex -7.741097e-01 2.008233e+01 1.005463e+01
      vertex -1.779438e+00 2.008233e+01 1.147151e+01
      vertex -9.503628e-01 2.008233e+01 1.015204e+01
    endloop
  endfacet
  facet normal 0.000000e+00 -1.000000e+00 0.000000e+00
    outer loop
      vertex -5.880587e-01 2.008233e+01 9.977562e+00
      vertex -1.779438e+00 2.008233e+01 1.147151e+01
      vertex -7.741097e-01 2.008233e+01 1.005463e+01
    endloop
  endfacet
  facet normal 0.000000e+00 -1.000000e+00 0.000000e+00
    outer loop
      vertex -3.945486e-01 2.008233e+01 9.921814e+00
      vertex -1.779438e+00 2.008233e+01 1.147151e+01
      vertex -5.880587e-01 2.008233e+01 9.977562e+00
    endloop
  endfacet
  facet normal 0.000000e+00 -1.000000e+00 0.000000e+00
    outer loop
      vertex -1.960144e-01 2.008233e+01 9.888082e+00
      vertex -1.779438e+00 2.008233e+01 1.147151e+01
      vertex -3.945486e-01 2.008233e+01 9.921814e+00
    endloop
  endfacet
  facet normal 0.000000e+00 -1.000000e+00 0.000000e+00
    outer loop
      vertex 5.050115e-03 2.008233e+01 9.876790e+00
      vertex -1.779438e+00 2.008233e+01 1.147151e+01
      vertex -1.960144e-01 2.008233e+01 9.888082e+00
    endloop
  endfacet
  facet normal 0.000000e+00 -1.000000e+00 0.000000e+00
    outer loop
      vertex 2.061137e-01 2.008233e+01 9.888082e+00
      vertex -1.779438e+00 2.008233e+01 1.147151e+01
      vertex 5.050115e-03 2.008233e+01 9.876790e+00
    endloop
  endfacet
  facet normal 0.000000e+00 -1.000000e+00 0.000000e+00
    outer loop
      vertex 4.046478e-01 2.008233e+01 9.921814e+00
      vertex -1.779438e+00 2.008233e+01 1.147151e+01
      vertex 2.061137e-01 2.008233e+01 9.888082e+00
    endloop
  endfacet
  facet normal 0.000000e+00 -1.000000e+00 0.000000e+00
    outer loop
      vertex 5.981580e-01 2.008233e+01 9.977562e+00
      vertex -1.779438e+00 2.008233e+01 1.147151e+01
      vertex 4.046478e-01 2.008233e+01 9.921814e+00
    endloop
  endfacet
  facet normal 0.000000e+00 -1.000000e+00 0.000000e+00
    outer loop
      vertex 7.842088e-01 2.008233e+01 1.005463e+01
      vertex -1.779438e+00 2.008233e+01 1.147151e+01
      vertex 5.981580e-01 2.008233e+01 9.977562e+00
    endloop
  endfacet
  facet normal 0.000000e+00 -1.000000e+00 0.000000e+00
    outer loop
      vertex 9.604620e-01 2.008233e+01 1.015204e+01
      vertex -1.779438e+00 2.008233e+01 1.147151e+01
      vertex 7.842088e-01 2.008233e+01 1.005463e+01
    endloop
  endfacet
  facet normal 0.000000e+00 -1.000000e+00 0.000000e+00
    outer loop
      vertex 1.124700e+00 2.008233e+01 1.026857e+01
      vertex -1.779438e+00 2.008233e+01 1.147151e+01
      vertex 9.604620e-01 2.008233e+01 1.015204e+01
    endloop
  endfacet
  facet normal 0.000000e+00 -1.000000e+00 0.000000e+00
    outer loop
      vertex 1.274858e+00 2.008233e+01 1.040276e+01
      vertex -1.779438e+00 2.008233e+01 1.147151e+01
      vertex 1.124700e+00 2.008233e+01 1.026857e+01
    endloop
  endfacet
  facet normal 0.000000e+00 -1.000000e+00 0.000000e+00
    outer loop
      vertex 1.409047e+00 2.008233e+01 1.055291e+01
      vertex -1.779438e+00 2.008233e+01 1.147151e+01
      vertex 1.274858e+00 2.008233e+01 1.040276e+01
    endloop
  endfacet
  facet normal 0.000000e+00 -1.000000e+00 0.000000e+00
    outer loop
      vertex 1.525581e+00 2.008233e+01 1.071716e+01
      vertex -1.779438e+00 2.008233e+01 1.147151e+01
      vertex 1.409047e+00 2.008233e+01 1.055291e+01
    endloop
  endfacet
  facet normal 0.000000e+00 -1.000000e+00 0.000000e+00
    outer loop
      vertex 1.622992e+00 2.008233e+01 1.089341e+01
      vertex -1.779438e+00 2.008233e+01 1.147151e+01
      vertex 1.525581e+00 2.008233e+01 1.071716e+01
    endloop
  endfacet
  facet normal 0.000000e+00 -1.000000e+00 0.000000e+00
    outer loop
      vertex 1.700057e+00 2.008233e+01 1.107946e+01
      vertex -1.779438e+00 2.008233e+01 1.147151e+01
      vertex 1.622992e+00 2.008233e+01 1.089341e+01
    endloop
  endfacet
  facet normal 0.000000e+00 -1.000000e+00 0.000000e+00
    outer loop
      vertex 1.755805e+00 2.008233e+01 1.127297e+01
      vertex -1.779438e+00 2.008233e+01 1.147151e+01
      vertex 1.700057e+00 2.008233e+01 1.107946e+01
    endloop
  endfacet
  facet normal 0.000000e+00 -1.000000e+00 0.000000e+00
    outer loop
      vertex 1.789538e+00 2.008233e+01 1.147151e+01
      vertex -1.779438e+00 2.008233e+01 1.147151e+01
      vertex 1.755805e+00 2.008233e+01 1.127297e+01
    endloop
  endfacet
  facet normal 0.000000e+00 -1.000000e+00 0.000000e+00
    outer loop
      vertex 1.800830e+00 2.008233e+01 1.167257e+01
      vertex -1.779438e+00 2.008233e+01 1.147151e+01
      vertex 1.789538e+00 2.008233e+01 1.147151e+01
    endloop
  endfacet
  facet normal 0.000000e+00 -1.000000e+00 0.000000e+00
    outer loop
      vertex -1.790731e+00 2.008233e+01 1.167257e+01
      vertex -1.779438e+00 2.008233e+01 1.147151e+01
      vertex 1.800830e+00 2.008233e+01 1.167257e+01
    endloop
  endfacet
  facet normal 9.984268e-01 0.000000e+00 5.607200e-02
    outer loop
      vertex -1.779438e+00 5.718114e+00 1.147151e+01
      vertex -1.779438e+00 2.008233e+01 1.147151e+01
      vertex -1.790731e+00 2.008233e+01 1.167257e+01
    endloop
  endfacet
  facet normal 9.984268e-01 0.000000e+00 5.607200e-02
    outer loop
      vertex -1.790731e+00 5.718114e+00 1.167257e+01
      vertex -1.779438e+00 5.718114e+00 1.147151e+01
      vertex -1.790731e+00 2.008233e+01 1.167257e+01
    endloop
  endfacet
  facet normal 9.858714e-01 0.000000e+00 1.675041e-01
    outer loop
      vertex -1.745706e+00 5.718114e+00 1.127297e+01
      vertex -1.745706e+00 2.008233e+01 1.127297e+01
      vertex -1.779438e+00 2.008233e+01 1.147151e+01
    endloop
  endfacet
  facet normal 9.858714e-01 0.000000e+00 1.675041e-01
    outer loop
      vertex -1.779438e+00 5.718114e+00 1.147151e+01
      vertex -1.745706e+00 5.718114e+00 1.127297e+01
      vertex -1.779438e+00 2.008233e+01 1.147151e+01
    endloop
  endfacet
  facet normal 9.609178e-01 0.000000e+00 2.768340e-01
    outer loop
      vertex -1.689957e+00 5.718114e+00 1.107946e+01
      vertex -1.689957e+00 2.008233e+01 1.107946e+01
      vertex -1.745706e+00 2.008233e+01 1.127297e+01
    endloop
  endfacet
  facet normal 9.609178e-01 0.000000e+00 2.768340e-01
    outer loop
      vertex -1.745706e+00 5.718114e+00 1.127297e+01
      vertex -1.689957e+00 5.718114e+00 1.107946e+01
      vertex -1.745706e+00 2.008233e+01 1.127297e+01
    endloop
  endfacet
  facet normal 9.238793e-01 0.000000e+00 3.826841e-01
    outer loop
      vertex -1.612892e+00 5.718114e+00 1.089341e+01
      vertex -1.612892e+00 2.008233e+01 1.089341e+01
      vertex -1.689957e+00 2.008233e+01 1.107946e+01
    endloop
  endfacet
  facet normal 9.238793e-01 0.000000e+00 3.826841e-01
    outer loop
      vertex -1.689957e+00 5.718114e+00 1.107946e+01
      vertex -1.612892e+00 5.718114e+00 1.089341e+01
      vertex -1.689957e+00 2.008233e+01 1.107946e+01
    endloop
  endfacet
  facet normal 8.752239e-01 0.000000e+00 4.837180e-01
    outer loop
      vertex -1.515481e+00 5.718114e+00 1.071716e+01
      vertex -1.515481e+00 2.008233e+01 1.071716e+01
      vertex -1.612892e+00 2.008233e+01 1.089341e+01
    endloop
  endfacet
  facet normal 8.752239e-01 0.000000e+00 4.837180e-01
    outer loop
      vertex -1.612892e+00 5.718114e+00 1.089341e+01
      vertex -1.515481e+00 5.718114e+00 1.071716e+01
      vertex -1.612892e+00 2.008233e+01 1.089341e+01
    endloop
  endfacet
  facet normal 8.155594e-01 0.000000e+00 5.786734e-01
    outer loop
      vertex -1.398948e+00 5.718114e+00 1.055291e+01
      vertex -1.398948e+00 2.008233e+01 1.055291e+01
      vertex -1.515481e+00 2.008233e+01 1.071716e+01
    endloop
  endfacet
  facet normal 8.155594e-01 0.000000e+00 5.786734e-01
    outer loop
      vertex -1.515481e+00 5.718114e+00 1.071716e+01
      vertex -1.398948e+00 5.718114e+00 1.055291e+01
      vertex -1.515481e+00 2.008233e+01 1.071716e+01
    endloop
  endfacet
  facet normal 7.456433e-01 0.000000e+00 6.663452e-01
    outer loop
      vertex -1.264758e+00 5.718114e+00 1.040276e+01
      vertex -1.264758e+00 2.008233e+01 1.040276e+01
      vertex -1.398948e+00 2.008233e+01 1.055291e+01
    endloop
  endfacet
  facet normal 7.456433e-01 0.000000e+00 6.663452e-01
    outer loop
      vertex -1.398948e+00 5.718114e+00 1.055291e+01
      vertex -1.264758e+00 5.718114e+00 1.040276e+01
      vertex -1.398948e+00 2.008233e+01 1.055291e+01
    endloop
  endfacet
  facet normal 6.663452e-01 0.000000e+00 7.456433e-01
    outer loop
      vertex -1.114601e+00 5.718114e+00 1.026857e+01
      vertex -1.114601e+00 2.008233e+01 1.026857e+01
      vertex -1.264758e+00 2.008233e+01 1.040276e+01
    endloop
  endfacet
  facet normal 6.663452e-01 0.000000e+00 7.456433e-01
    outer loop
      vertex -1.264758e+00 5.718114e+00 1.040276e+01
      vertex -1.114601e+00 5.718114e+00 1.026857e+01
      vertex -1.264758e+00 2.008233e+01 1.040276e+01
    endloop
  endfacet
  facet normal 5.786734e-01 0.000000e+00 8.155594e-01
    outer loop
      vertex -9.503628e-01 5.718114e+00 1.015204e+01
      vertex -9.503628e-01 2.008233e+01 1.015204e+01
      vertex -1.114601e+00 2.008233e+01 1.026857e+01
    endloop
  endfacet
  facet normal 5.786734e-01 0.000000e+00 8.155594e-01
    outer loop
      vertex -1.114601e+00 5.718114e+00 1.026857e+01
      vertex -9.503628e-01 5.718114e+00 1.015204e+01
      vertex -1.114601e+00 2.008233e+01 1.026857e+01
    endloop
  endfacet
  facet normal 4.837180e-01 0.000000e+00 8.752239e-01
    outer loop
      vertex -7.741097e-01 5.718114e+00 1.005463e+01
      vertex -7.741097e-01 2.008233e+01 1.005463e+01
      vertex -9.503628e-01 2.008233e+01 1.015204e+01
    endloop
  endfacet
  facet normal 4.837180e-01 0.000000e+00 8.752239e-01
    outer loop
      vertex -9.503628e-01 5.718114e+00 1.015204e+01
      vertex -7.741097e-01 5.718114e+00 1.005463e+01
      vertex -9.503628e-01 2.008233e+01 1.015204e+01
    endloop
  endfacet
  facet normal 3.826841e-01 0.000000e+00 9.238793e-01
    outer loop
      vertex -5.880587e-01 5.718114e+00 9.977562e+00
      vertex -5.880587e-01 2.008233e+01 9.977562e+00
      vertex -7.741097e-01 2.008233e+01 1.005463e+01
    endloop
  endfacet
  facet normal 3.826841e-01 0.000000e+00 9.238793e-01
    outer loop
      vertex -7.741097e-01 5.718114e+00 1.005463e+01
      vertex -5.880587e-01 5.718114e+00 9.977562e+00
      vertex -7.741097e-01 2.008233e+01 1.005463e+01
    endloop
  endfacet
  facet normal 2.768340e-01 0.000000e+00 9.609178e-01
    outer loop
      vertex -3.945486e-01 5.718114e+00 9.921814e+00
      vertex -3.945486e-01 2.008233e+01 9.921814e+00
      vertex -5.880587e-01 2.008233e+01 9.977562e+00
    endloop
  endfacet
  facet normal 2.768340e-01 0.000000e+00 9.609178e-01
    outer loop
      vertex -5.880587e-01 5.718114e+00 9.977562e+00
      vertex -3.945486e-01 5.718114e+00 9.921814e+00
      vertex -5.880587e-01 2.008233e+01 9.977562e+00
    endloop
  endfacet
  facet normal 1.675041e-01 0.000000e+00 9.858714e-01
    outer loop
      vertex -1.960144e-01 5.718114e+00 9.888082e+00
      vertex -1.960144e-01 2.008233e+01 9.888082e+00
      vertex -3.945486e-01 2.008233e+01 9.921814e+00
    endloop
  endfacet
  facet normal 1.675041e-01 0.000000e+00 9.858714e-01
    outer loop
      vertex -3.945486e-01 5.718114e+00 9.921814e+00
      vertex -1.960144e-01 5.718114e+00 9.888082e+00
      vertex -3.945486e-01 2.008233e+01 9.921814e+00
    endloop
  endfacet
  facet normal 5.607200e-02 0.000000e+00 9.984268e-01
    outer loop
      vertex 5.050115e-03 5.718114e+00 9.876790e+00
      vertex 5.050115e-03 2.008233e+01 9.876790e+00
      vertex -1.960144e-01 2.008233e+01 9.888082e+00
    endloop
  endfacet
  facet normal 5.607200e-02 0.000000e+00 9.984268e-01
    outer loop
      vertex -1.960144e-01 5.718114e+00 9.888082e+00
      vertex 5.050115e-03 5.718114e+00 9.876790e+00
      vertex -1.960144e-01 2.008233e+01 9.888082e+00
    endloop
  endfacet
  facet normal -5.607200e-02 0.000000e+00 9.984268e-01
    outer loop
      vertex 2.061137e-01 5.718114e+00 9.888082e+00
      vertex 2.061137e-01 2.008233e+01 9.888082e+00
      vertex 5.050115e-03 2.008233e+01 9.876790e+00
    endloop
  endfacet
  facet normal -5.607200e-02 0.000000e+00 9.984268e-01
    outer loop
      vertex 5.050115e-03 5.718114e+00 9.876790e+00
      vertex 2.061137e-01 5.718114e+00 9.888082e+00
      vertex 5.050115e-03 2.008233e+01 9.876790e+00
    endloop
  endfacet
  facet normal -1.675041e-01 0.000000e+00 9.858714e-01
    outer loop
      vertex 4.046478e-01 5.718114e+00 9.921814e+00
      vertex 4.046478e-01 2.008233e+01 9.921814e+00
      vertex 2.061137e-01 2.008233e+01 9.888082e+00
    endloop
  endfacet
  facet normal -1.675041e-01 0.000000e+00 9.858714e-01
    outer loop
      vertex 2.061137e-01 5.718114e+00 9.888082e+00
      vertex 4.046478e-01 5.718114e+00 9.921814e+00
      vertex 2.061137e-01 2.008233e+01 9.888082e+00
    endloop
  endfacet
  facet normal -2.768340e-01 0.000000e+00 9.609178e-01
    outer loop
      vertex 5.981580e-01 5.718114e+00 9.977562e+00
      vertex 5.981580e-01 2.008233e+01 9.977562e+00
      vertex 4.046478e-01 2.008233e+01 9.921814e+00
    endloop
  endfacet
  facet normal -2.768340e-01 0.000000e+00 9.609178e-01
    outer loop
      vertex 4.046478e-01 5.718114e+00 9.921814e+00
      vertex 5.981580e-01 5.718114e+00 9.977562e+00
      vertex 4.046478e-01 2.008233e+01 9.921814e+00
    endloop
  endfacet
  facet normal -3.826841e-01 0.000000e+00 9.238793e-01
    outer loop
      vertex 7.842088e-01 5.718114e+00 1.005463e+01
      vertex 7.842088e-01 2.008233e+01 1.005463e+01
      vertex 5.981580e-01 2.008233e+01 9.977562e+00
    endloop
  endfacet
  facet normal -3.826841e-01 0.000000e+00 9.238793e-01
    outer loop
      vertex 5.981580e-01 5.718114e+00 9.977562e+00
      vertex 7.842088e-01 5.718114e+00 1.005463e+01
      vertex 5.981580e-01 2.008233e+01 9.977562e+00
    endloop
  endfacet
  facet normal -4.837180e-01 0.000000e+00 8.752239e-01
    outer loop
      vertex 9.604620e-01 5.718114e+00 1.015204e+01
      vertex 9.604620e-01 2.008233e+01 1.015204e+01
      vertex 7.842088e-01 2.008233e+01 1.005463e+01
    endloop
  endfacet
  facet normal -4.837180e-01 0.000000e+00 8.752239e-01
    outer loop
      vertex 7.842088e-01 5.718114e+00 1.005463e+01
      vertex 9.604620e-01 5.718114e+00 1.015204e+01
      vertex 7.842088e-01 2.008233e+01 1.005463e+01
    endloop
  endfacet
  facet normal -5.786734e-01 0.000000e+00 8.155594e-01
    outer loop
      vertex 1.124700e+00 5.718114e+00 1.026857e+01
      vertex 1.124700e+00 2.008233e+01 1.026857e+01
      vertex 9.604620e-01 2.008233e+01 1.015204e+01
    endloop
  endfacet
  facet normal -5.786734e-01 0.000000e+00 8.155594e-01
    outer loop
      vertex 9.604620e-01 5.718114e+00 1.015204e+01
      vertex 1.124700e+00 5.718114e+00 1.026857e+01
      vertex 9.604620e-01 2.008233e+01 1.015204e+01
    endloop
  endfacet
  facet normal -6.663452e-01 0.000000e+00 7.456433e-01
    outer loop
      vertex 1.274858e+00 5.718114e+00 1.040276e+01
      vertex 1.274858e+00 2.008233e+01 1.040276e+01
      vertex 1.124700e+00 2.008233e+01 1.026857e+01
    endloop
  endfacet
  facet normal -6.663452e-01 0.000000e+00 7.456433e-01
    outer loop
      vertex 1.124700e+00 5.718114e+00 1.026857e+01
      vertex 1.274858e+00 5.718114e+00 1.040276e+01
      vertex 1.124700e+00 2.008233e+01 1.026857e+01
    endloop
  endfacet
  facet normal -7.456433e-01 0.000000e+00 6.663452e-01
    outer loop
      vertex 1.409047e+00 2.008233e+01 1.055291e+01
      vertex 1.274858e+00 2.008233e+01 1.040276e+01
      vertex 1.409047e+00 5.718114e+00 1.055291e+01
    endloop
  endfacet
  facet normal -7.456433e-01 0.000000e+00 6.663452e-01
    outer loop
      vertex 1.409047e+00 5.718114e+00 1.055291e+01
      vertex 1.274858e+00 2.008233e+01 1.040276e+01
      vertex 1.274858e+00 5.718114e+00 1.040276e+01
    endloop
  endfacet
  facet normal -8.155594e-01 0.000000e+00 5.786734e-01
    outer loop
      vertex 1.525581e+00 2.008233e+01 1.071716e+01
      vertex 1.409047e+00 2.008233e+01 1.055291e+01
      vertex 1.525581e+00 5.718114e+00 1.071716e+01
    endloop
  endfacet
  facet normal -8.155594e-01 0.000000e+00 5.786734e-01
    outer loop
      vertex 1.525581e+00 5.718114e+00 1.071716e+01
      vertex 1.409047e+00 2.008233e+01 1.055291e+01
      vertex 1.409047e+00 5.718114e+00 1.055291e+01
    endloop
  endfacet
  facet normal -8.752239e-01 0.000000e+00 4.837180e-01
    outer loop
      vertex 1.622992e+00 2.008233e+01 1.089341e+01
      vertex 1.525581e+00 2.008233e+01 1.071716e+01
      vertex 1.622992e+00 5.718114e+00 1.089341e+01
    endloop
  endfacet
  facet normal -8.752239e-01 0.000000e+00 4.837180e-01
    outer loop
      vertex 1.622992e+00 5.718114e+00 1.089341e+01
      vertex 1.525581e+00 2.008233e+01 1.071716e+01
      vertex 1.525581e+00 5.718114e+00 1.071716e+01
    endloop
  endfacet
  facet normal -9.238793e-01 0.000000e+00 3.826841e-01
    outer loop
      vertex 1.700057e+00 2.008233e+01 1.107946e+01
      vertex 1.622992e+00 2.008233e+01 1.089341e+01
      vertex 1.700057e+00 5.718114e+00 1.107946e+01
    endloop
  endfacet
  facet normal -9.238793e-01 0.000000e+00 3.826841e-01
    outer loop
      vertex 1.700057e+00 5.718114e+00 1.107946e+01
      vertex 1.622992e+00 2.008233e+01 1.089341e+01
      vertex 1.622992e+00 5.718114e+00 1.089341e+01
    endloop
  endfacet
  facet normal -9.609178e-01 0.000000e+00 2.768340e-01
    outer loop
      vertex 1.755805e+00 2.008233e+01 1.127297e+01
      vertex 1.700057e+00 2.008233e+01 1.107946e+01
      vertex 1.755805e+00 5.718114e+00 1.127297e+01
    endloop
  endfacet
  facet normal -9.609178e-01 0.000000e+00 2.768340e-01
    outer loop
      vertex 1.755805e+00 5.718114e+00 1.127297e+01
      vertex 1.700057e+00 2.008233e+01 1.107946e+01
      vertex 1.700057e+00 5.718114e+00 1.107946e+01
    endloop
  endfacet
  facet normal -9.858714e-01 0.000000e+00 1.675041e-01
    outer loop
      vertex 1.789538e+00 2.008233e+01 1.147151e+01
      vertex 1.755805e+00 2.008233e+01 1.127297e+01
      vertex 1.789538e+00 5.718114e+00 1.147151e+01
    endloop
  endfacet
  facet normal -9.858714e-01 0.000000e+00 1.675041e-01
    outer loop
      vertex 1.789538e+00 5.718114e+00 1.147151e+01
      vertex 1.755805e+00 2.008233e+01 1.127297e+01
      vertex 1.755805e+00 5.718114e+00 1.127297e+01
    endloop
  endfacet
endsolid Default
